<svg id="Layer_1" data-name="Layer 1" xmlns="http://www.w3.org/2000/svg" viewBox="0 0 512 512"><defs><style>.cls-1{fill:#757889;}.cls-2{fill:#ffb85a;}.cls-3{opacity:0.2;}.cls-4{opacity:0.3;}.cls-5{fill:#fff;}.cls-6{fill:#f2496d;}.cls-7{fill:#2b374f;}</style></defs><title>holy-book-filled</title><rect class="cls-1" x="83.2" y="12.8" width="345.6" height="415.81" rx="32" ry="32"/><path class="cls-2" d="M428.61,332.8v63.81a32,32,0,0,1-32,32H332.8A102.47,102.47,0,0,1,428.61,332.8Z"/><path class="cls-2" d="M428.61,44.8v63.81A102.47,102.47,0,0,1,332.8,12.8h63.81A32,32,0,0,1,428.61,44.8Z"/><g class="cls-3"><path d="M396.8,12.8H384V428.61h12.8a32,32,0,0,0,32-32V44.8A32,32,0,0,0,396.8,12.8Z"/></g><g class="cls-4"><path class="cls-5" d="M115.2,12.8a32,32,0,0,0-32,32V396.61a32,32,0,0,0,32,32H128V12.8Z"/></g><path class="cls-2" d="M326.4,166.4h-32v-32A6.4,6.4,0,0,0,288,128H249.6a6.4,6.4,0,0,0-6.4,6.4v32h-32a6.4,6.4,0,0,0-6.4,6.4v38.4a6.4,6.4,0,0,0,6.4,6.4h32v89.6a6.4,6.4,0,0,0,6.4,6.4H288a6.4,6.4,0,0,0,6.4-6.4V217.6h32a6.4,6.4,0,0,0,6.4-6.4V172.8A6.4,6.4,0,0,0,326.4,166.4Z"/><polygon class="cls-6" points="134.4 428.61 134.4 499.2 166.4 473.6 198.4 499.2 198.4 428.61 134.4 428.61"/><path class="cls-7" d="M396.8,0H115.2A44.85,44.85,0,0,0,70.4,44.8V396.61a44.85,44.85,0,0,0,44.8,44.8h6.4V499.2a12.8,12.8,0,0,0,20.79,10l24-19.2,24,19.2a12.8,12.8,0,0,0,20.79-10V441.41H396.8a44.85,44.85,0,0,0,44.8-44.8V44.8A44.85,44.85,0,0,0,396.8,0ZM321.41,415.81H147.2V25.6H321.41A115.43,115.43,0,0,0,416,120V321.38A115.43,115.43,0,0,0,321.41,415.81ZM396.61,25.6a19.22,19.22,0,0,1,19.2,19.2V93.94A89.81,89.81,0,0,1,347.47,25.6ZM96,396.61V44.8a19.22,19.22,0,0,1,19.2-19.2h6.4V415.81h-6.4A19.22,19.22,0,0,1,96,396.61Zm89.6,76-11.21-9a12.79,12.79,0,0,0-16,0l-11.21,9V441.41h38.4Zm161.88-56.76a89.81,89.81,0,0,1,68.33-68.34v49.14a19.22,19.22,0,0,1-19.2,19.2Z"/><path class="cls-7" d="M326.4,153.6H307.2V134.4A19.22,19.22,0,0,0,288,115.2H249.6a19.22,19.22,0,0,0-19.2,19.2v19.2H211.2A19.22,19.22,0,0,0,192,172.8v38.4a19.22,19.22,0,0,0,19.2,19.2h19.2v76.8a19.22,19.22,0,0,0,19.2,19.2H288a19.22,19.22,0,0,0,19.2-19.2V230.4h19.2a19.22,19.22,0,0,0,19.2-19.2V172.8A19.22,19.22,0,0,0,326.4,153.6ZM320,204.8H281.6v96H256v-96H217.6V179.2H256V140.8h25.6v38.4H320Z"/></svg>