<svg id="Layer_1" data-name="Layer 1" xmlns="http://www.w3.org/2000/svg" viewBox="0 0 512 512"><defs><style>.cls-1{fill:#757889;}.cls-2{fill:#e4e6ea;}.cls-3{opacity:0.2;}.cls-4{fill:#fff;}.cls-5{fill:#f2496d;}.cls-6{fill:#2b374f;}</style></defs><title>knife-filled</title><path class="cls-1" d="M218.39,349.64l-144.28,144a19.11,19.11,0,0,1-27.05,0L32.79,479.35,18.4,465a19,19,0,0,1,0-27l144.28-144,27.95,27.82V322Z"/><path class="cls-2" d="M461.74,199.41,273.84,386.93a12.74,12.74,0,0,1-18,0l-37.41-37.29L190.63,322v-.06l-27.95-27.82L440.76,16.49a12.86,12.86,0,0,1,18,0l2.94,2.94a120.18,120.18,0,0,1,14.58,17.4A127,127,0,0,1,461.74,199.41Z"/><g class="cls-3"><path class="cls-4" d="M461.74,19.43l-2.94-2.94a12.86,12.86,0,0,0-18,0L162.68,294.06,18.4,438a19,19,0,0,0,0,27l14.39,14.33L190.63,322v-.06l23.73-23.66,262-261.4A120.18,120.18,0,0,0,461.74,19.43Z"/></g><path class="cls-5" d="M255.79,387a12.77,12.77,0,0,0,18,0L461.75,199.4A126.79,126.79,0,0,0,497.42,89.67c-10.95.63-21.85.16-33.32,11.61-21,20.92-1.94,39.89-22.9,60.81s-40,1.92-60.9,22.82-1.91,39.86-22.83,60.75-40,1.92-60.89,22.81-1.91,39.87-22.85,60.76c-19.49,19.45-37.32,4.47-56.58,19.16Z"/><path class="cls-5" d="M499.09,319.78a32,32,0,1,1-64,0c0-25.58,32-57.56,32-57.56S499.09,294.19,499.09,319.78Z"/><path class="cls-5" d="M447.93,444a22.39,22.39,0,1,1-44.77,0c0-18.27,22.38-41.12,22.38-41.12S447.93,425.76,447.93,444Z"/><path class="cls-6" d="M467.11,244.12l-9,9c-3.66,3.66-35.73,36.59-35.73,66.61a44.77,44.77,0,1,0,89.54,0c0-30-32.07-62.95-35.73-66.61Zm0,94.84a19.21,19.21,0,0,1-19.19-19.19c0-11,9.72-26.6,19.19-38.34,9.47,11.74,19.19,27.34,19.19,38.34A19.21,19.21,0,0,1,467.11,339Z"/><path class="cls-6" d="M425.54,384.65,416.41,394c-2.66,2.72-26,27.23-26,50.07,0,19.65,15.78,35.63,35.18,35.63s35.18-16,35.18-35.63c0-22.84-23.38-47.35-26-50.07Zm0,69.44a9.84,9.84,0,0,1-9.59-10c0-5.66,4.4-13.85,9.59-21.12,5.2,7.28,9.59,15.47,9.59,21.12A9.84,9.84,0,0,1,425.54,454.09Z"/><path class="cls-6" d="M470.77,208.46h0l0,0c.92-.92,1.82-1.85,2.71-2.79l.39-.42A139.69,139.69,0,0,0,508.8,79.65l-.54-3.42H508a139.19,139.19,0,0,0-21.14-46.67,132.94,132.94,0,0,0-16.08-19.19l-3-3a25.75,25.75,0,0,0-36.06,0L162.7,276h0L9.36,429a31.85,31.85,0,0,0,0,45.1L38,502.69a32,32,0,0,0,45.12,0l135.26-135L246.75,396a25.6,25.6,0,0,0,36.1,0L436.3,242.87ZM264.84,377.87l-24.28-24.21c1.08-.07,2.2-.13,3.37-.19,10.5-.54,24.88-1.28,38.83-15.19s14.66-28.32,15.16-38.82c.44-9,.72-15,7.69-21.94s13-7.25,22-7.68c10.51-.51,24.9-1.2,38.87-15.13s14.65-28.32,15.15-38.81c.43-9,.72-15,7.68-21.93s13-7.25,22-7.69c10.51-.51,24.91-1.2,38.87-15.14s14.68-28.33,15.19-38.84c.44-9,.73-15,7.71-22A22.73,22.73,0,0,1,486,103.41a114.84,114.84,0,0,1-27.11,80.25c-.69.8-1.39,1.61-2.1,2.39-.39.44-.8.87-1.2,1.3-.83.88-1.66,1.76-2.52,2.63l-.36.37L411.08,231.9ZM449.76,25.53l3,3a108.41,108.41,0,0,1,13.09,15.62,113.92,113.92,0,0,1,16.17,34,48.25,48.25,0,0,0-27,14.07c-14,14-14.68,28.33-15.19,38.83-.44,9-.73,15-7.71,22s-13,7.25-22,7.69c-10.51.51-24.91,1.2-38.87,15.13s-14.66,28.32-15.16,38.82c-.43,9-.72,15-7.68,21.93s-13,7.25-22,7.68c-10.51.51-24.9,1.2-38.87,15.13s-14.66,28.33-15.16,38.82c-.43,9-.72,15-7.68,21.94s-13,7.29-22.07,7.75c-6.83.35-14.88.78-23.38,4.48l-38.43-38.36ZM65.05,484.58a6.36,6.36,0,0,1-9,0L27.43,456a6.26,6.26,0,0,1,0-8.88l135.24-135,37.61,37.5Z"/></svg>