<svg id="Layer_1" data-name="Layer 1" xmlns="http://www.w3.org/2000/svg" viewBox="0 0 512 512"><defs><style>.cls-1{fill:#757889;}.cls-2{opacity:0.3;}.cls-3{fill:#fff;}.cls-4{opacity:0.2;}.cls-5{fill:#e4e6ea;}.cls-6{fill:#ffb85a;}.cls-7{opacity:0.12;}.cls-8{opacity:0.6;}.cls-9{fill:#2b374f;}</style></defs><title>candle-filled</title><path class="cls-1" d="M396.4,443.46,381,494.66A6.32,6.32,0,0,1,375,499.2H90A6.32,6.32,0,0,1,84,494.66l-15.36-51.2a6.37,6.37,0,0,1,6.08-8.26H390.32A6.37,6.37,0,0,1,396.4,443.46Z"/><g class="cls-2"><path class="cls-3" d="M127.53,499.2H90A6.32,6.32,0,0,1,84,494.66l-15.36-51.2a6.37,6.37,0,0,1,6.08-8.26h33.66Z"/></g><g class="cls-4"><path d="M396.4,443.46,381,494.66A6.32,6.32,0,0,1,375,499.2h-37.5l19.2-64h33.66A6.37,6.37,0,0,1,396.4,443.46Z"/></g><rect class="cls-5" x="155.69" y="211.2" width="153.6" height="224"/><path class="cls-6" d="M277.29,96a44.8,44.8,0,1,1-89.6,0c0-44.8,44.8-83.2,44.8-83.2S277.29,51.2,277.29,96Z"/><g class="cls-7"><path d="M290.09,332.8c-4.54,0-8.9-1-19.2-2.69V435.2h38.4V326.4A31.62,31.62,0,0,1,290.09,332.8Z"/></g><g class="cls-8"><path class="cls-3" d="M174.89,300.8a31.62,31.62,0,0,1-19.2-6.4V435.2h38.4V298.11C183.79,299.84,179.44,300.8,174.89,300.8Z"/></g><path class="cls-3" d="M250.41,110.08a17.92,17.92,0,1,1-35.84,0c0-17.92,17.92-33.28,17.92-33.28S250.41,92.16,250.41,110.08Z"/><path class="cls-5" d="M322.09,211.2v89.6a32,32,0,0,1-64,0V256A25.59,25.59,0,0,0,230,230.53c-13.31,1.28-23.1,13.18-23.1,26.56V268.8a32,32,0,1,1-64,0V211.2a19.17,19.17,0,0,1,19.2-19.2h140.8A19.17,19.17,0,0,1,322.09,211.2Z"/><g class="cls-7"><path d="M322.09,211.2v89.6a31.9,31.9,0,0,1-32,32V192h12.8A19.17,19.17,0,0,1,322.09,211.2Z"/></g><g class="cls-8"><path class="cls-3" d="M174.89,192V300.8a32,32,0,0,1-32-32V211.2a19.17,19.17,0,0,1,19.2-19.2Z"/></g><path class="cls-9" d="M411.7,307.2a45,45,0,0,0-44.8,45V422.4h-44.8V332.11a44.64,44.64,0,0,0,12.8-31.31V211.2a32,32,0,0,0-32-32h-57.6V152.15A57.69,57.69,0,0,0,290.09,96c0-50.11-47.26-91.19-49.27-92.92a12.81,12.81,0,0,0-16.66,0c-2,1.72-49.27,42.81-49.27,92.92a57.69,57.69,0,0,0,44.8,56.15V179.2h-57.6a32,32,0,0,0-32,32v57.6a44.64,44.64,0,0,0,12.8,31.31V422.4H74.7a19.2,19.2,0,0,0-18.39,24.72l15.36,51.2A19.08,19.08,0,0,0,90.06,512H374.93a19.09,19.09,0,0,0,18.39-13.68l15.36-51.2a19.19,19.19,0,0,0-16.19-24.58V352.19a19.2,19.2,0,1,1,31,15.34,12.8,12.8,0,0,0,15.79,20.15A45,45,0,0,0,411.7,307.2ZM200.49,96c0-27.19,20.19-52.69,32-65.28,11.82,12.59,32,38.09,32,65.28a32,32,0,0,1-64,0Zm-32,217.14a44.77,44.77,0,0,0,51.2-44.34V257.1c0-7.14,5.05-13.22,11.5-13.83A12.8,12.8,0,0,1,245.29,256v44.8a44.77,44.77,0,0,0,51.2,44.34V422.4h-128ZM155.69,211.2a6.41,6.41,0,0,1,6.4-6.4h140.8a6.41,6.41,0,0,1,6.4,6.4v89.6a19.2,19.2,0,0,1-38.4,0V256a38.39,38.39,0,0,0-38.47-38.39c-1.22,0-2.44.06-3.66.17-19.44,1.86-34.67,19.13-34.67,39.32v11.7a19.2,19.2,0,0,1-38.4,0ZM370.17,486.4H94.82L83.3,448H381.7Z"/></svg>