<svg id="Layer_1" data-name="Layer 1" xmlns="http://www.w3.org/2000/svg" viewBox="0 0 512 512"><defs><style>.cls-1{fill:#757889;}.cls-2{opacity:0.12;}.cls-3{opacity:0.2;}.cls-4{fill:#fff;}.cls-5{fill:#ffb85a;}.cls-6{fill:#2b374f;}</style></defs><title>cross-filled</title><polygon class="cls-1" points="396.8 435.2 115.2 435.2 89.6 499.2 422.4 499.2 396.8 435.2"/><g class="cls-2"><polygon points="396.8 435.2 352 435.2 377.6 499.2 422.4 499.2 396.8 435.2"/></g><g class="cls-3"><polygon class="cls-4" points="115.2 435.2 89.6 499.2 134.4 499.2 160 435.2 115.2 435.2"/></g><rect class="cls-1" x="153.6" y="396.8" width="204.8" height="38.4"/><polygon class="cls-5" points="377.6 102.4 294.4 102.4 294.4 12.8 217.6 12.8 217.6 102.4 134.4 102.4 134.4 179.2 217.6 179.2 217.6 396.8 294.4 396.8 294.4 179.2 377.6 179.2 377.6 102.4"/><g class="cls-2"><polygon points="294.4 12.8 256 12.8 256 396.8 294.4 396.8 294.4 179.2 377.6 179.2 377.6 102.4 294.4 102.4 294.4 12.8"/></g><g class="cls-3"><rect class="cls-4" x="153.6" y="396.8" width="38.4" height="38.4"/></g><g class="cls-2"><rect x="320" y="396.8" width="38.4" height="38.4"/></g><path class="cls-6" d="M434.29,494.45l-25.6-64a12.81,12.81,0,0,0-11.89-8H371.2V396.8A12.8,12.8,0,0,0,358.4,384H307.2V192h83.2V89.6H307.2V0H204.8V89.6H121.6V192h83.2V384H153.6a12.8,12.8,0,0,0-12.8,12.8v25.6H115.2a12.8,12.8,0,0,0-11.88,8l-25.6,64A12.8,12.8,0,0,0,89.6,512H422.4a12.8,12.8,0,0,0,11.89-17.55ZM147.2,166.4V115.2h83.2V25.6h51.2v89.6h83.2v51.2H281.6V384H230.4V166.4Zm19.2,243.2H345.6v12.8H166.4Zm-57.89,76.8L123.87,448H388.13l15.36,38.4Z"/></svg>