<svg id="Layer_1" data-name="Layer 1" xmlns="http://www.w3.org/2000/svg" viewBox="0 0 512 512"><defs><style>.cls-1{fill:#757889;}.cls-2{opacity:0.2;}.cls-3{fill:#fff;}.cls-4{fill:#ffb85a;}.cls-5{fill:#2b374f;}</style></defs><title>church-filled</title><polygon class="cls-1" points="460.8 303.94 460.8 499.2 51.2 499.2 51.2 303.94 83.2 291.71 160 262.4 160 147.2 192 132.29 256 102.4 320 132.29 352 147.2 352 262.4 428.8 291.71 460.8 303.94"/><g class="cls-2"><polygon class="cls-3" points="83.2 291.71 83.2 499.2 51.2 499.2 51.2 303.94 83.2 291.71"/></g><g class="cls-2"><polygon class="cls-3" points="192 132.29 192 262.4 160 275.2 160 147.2 192 132.29"/></g><g class="cls-2"><polygon points="460.8 303.94 460.8 499.2 428.8 499.2 428.8 291.71 460.8 303.94"/></g><g class="cls-2"><polygon points="352 147.2 352 275.2 320 262.4 320 132.29 352 147.2"/></g><path class="cls-4" d="M160,435.2H108.8V384a25.6,25.6,0,0,1,25.6-25.6h0A25.6,25.6,0,0,1,160,384Z"/><path class="cls-4" d="M403.2,435.2H352V384a25.6,25.6,0,0,1,25.6-25.6h0A25.6,25.6,0,0,1,403.2,384Z"/><path class="cls-4" d="M294.4,499.2H217.6V390.4A38.4,38.4,0,0,1,256,352h0a38.4,38.4,0,0,1,38.4,38.4Z"/><circle class="cls-4" cx="256" cy="204.8" r="32"/><path class="cls-5" d="M134.4,345.6A38.44,38.44,0,0,0,96,384v51.2A12.8,12.8,0,0,0,108.8,448H160a12.8,12.8,0,0,0,12.8-12.8V384A38.44,38.44,0,0,0,134.4,345.6Zm12.8,76.8H121.6V384a12.8,12.8,0,0,1,25.6,0Z"/><path class="cls-5" d="M339.2,435.2A12.8,12.8,0,0,0,352,448h51.2A12.8,12.8,0,0,0,416,435.2V384a38.4,38.4,0,1,0-76.8,0ZM364.8,384a12.8,12.8,0,0,1,25.6,0v38.4H364.8Z"/><path class="cls-5" d="M256,160a44.8,44.8,0,1,0,44.8,44.8A44.85,44.85,0,0,0,256,160Zm0,64a19.2,19.2,0,1,1,19.2-19.2A19.22,19.22,0,0,1,256,224Z"/><path class="cls-5" d="M503.76,306.62l-139-53V167.3L387.73,178a12.8,12.8,0,0,0,10.82-23.2L268.8,94.25V57.6H288A12.8,12.8,0,0,0,288,32H268.8V12.8a12.8,12.8,0,0,0-25.6,0V32H224a12.8,12.8,0,0,0,0,25.6h19.2V94.25L113.45,154.8A12.8,12.8,0,0,0,124.27,178l22.93-10.7v86.29l-139,53a12.8,12.8,0,1,0,9.13,23.91l21-8V499.2A12.8,12.8,0,0,0,51.2,512H460.8a12.8,12.8,0,0,0,12.8-12.8V322.5l21,8a12.8,12.8,0,0,0,9.13-23.91ZM230.4,486.4v-96a25.6,25.6,0,1,1,51.2,0v96ZM448,312.74V486.4H307.2v-96a51.2,51.2,0,1,0-102.4,0v96H64V312.74l100.56-38.38c.37-.14.73-.3,1.08-.48l.31-.16q.37-.19.73-.41l.32-.2q.39-.26.76-.54l.18-.13c.28-.23.56-.46.82-.71l.29-.29c.17-.17.34-.34.5-.52l.28-.33c.17-.2.33-.41.49-.62l.19-.26q.31-.45.58-.92l.14-.26c.13-.24.26-.49.37-.74l.15-.34c.1-.24.2-.48.29-.73l.12-.33c.11-.33.2-.66.28-1l0-.22c.07-.3.12-.61.17-.92,0-.15,0-.31.05-.46s0-.43.05-.65,0-.34,0-.51,0-.14,0-.21v-107L256,116.52l83.2,38.83v107c0,.07,0,.14,0,.21s0,.34,0,.51,0,.43.05.65,0,.31.05.46c0,.31.1.62.17.92l0,.22c.08.34.18.67.28,1l.12.33c.09.25.18.49.29.73l.15.34c.12.25.24.5.37.74l.14.26q.27.47.58.92l.19.26c.16.21.32.42.49.62l.28.33c.16.18.33.35.5.52l.29.29c.26.25.53.49.82.71l.18.13q.37.28.76.54l.32.2q.36.22.73.41l.31.16c.35.17.71.34,1.08.48Z"/></svg>