<svg id="Layer_1" data-name="Layer 1" xmlns="http://www.w3.org/2000/svg" viewBox="0 0 512 512"><defs><style>.cls-1{fill:#e4e6ea;}.cls-2{fill:#2b374f;}</style></defs><title>bone-cross-filled</title><path class="cls-1" d="M434.69,217.09a32,32,0,0,1-63.49-5.89H140.8a32,32,0,1,1-51-25.6,32,32,0,1,1,51-25.6H371.2a32,32,0,1,1,51,25.6A31.91,31.91,0,0,1,434.69,217.09Z"/><path class="cls-1" d="M312.9,474.05A31.91,31.91,0,0,1,256,486.21a32,32,0,1,1-25.6-51V76.8a32,32,0,1,1,25.6-51,32,32,0,1,1,25.6,51V435.2A32,32,0,0,1,312.9,474.05Z"/><path class="cls-2" d="M447.26,151.8a44.82,44.82,0,0,0-87-4.6H294.4V87.74A44.79,44.79,0,1,0,256,8.11a44.77,44.77,0,1,0-38.4,79.63V147.2H151.75a44.79,44.79,0,1,0-79.63,38.4A44.72,44.72,0,0,0,99.33,255a45.94,45.94,0,0,0,9.41,1,44.82,44.82,0,0,0,43-32H217.6V424.25A44.79,44.79,0,1,0,256,503.89,44.52,44.52,0,0,0,281.67,512a45.6,45.6,0,0,0,8.13-.74,44.82,44.82,0,0,0,4.6-87V224h65.85a44.79,44.79,0,1,0,79.63-38.4A44.69,44.69,0,0,0,447.26,151.8ZM230.4,64a19.2,19.2,0,1,1,15.34-30.58L256,47.2l10.26-13.78a19.13,19.13,0,0,1,34.09,7.12A19.24,19.24,0,0,1,281.6,64H268.8v83.2H243.2V64Zm51.2,384a19.2,19.2,0,1,1-15.33,30.58L256,464.8l-10.27,13.79A19.15,19.15,0,1,1,230.4,448h12.8V224h25.6V448Zm133-252.14a19,19,0,0,1,7.49,19A19.21,19.21,0,0,1,384,211.2V198.4H128v12.8a19.2,19.2,0,1,1-30.58-15.33L111.2,185.6,97.42,175.33a19,19,0,0,1-7.49-19,19.21,19.21,0,0,1,14.61-15.12,20.89,20.89,0,0,1,4.28-.44A19.19,19.19,0,0,1,128,160v12.8H384V160a19.2,19.2,0,1,1,30.58,15.33L400.8,185.6Z"/></svg>