<svg id="Layer_1" data-name="Layer 1" xmlns="http://www.w3.org/2000/svg" viewBox="0 0 512 512"><defs><style>.cls-1{fill:#f2496d;}.cls-2{opacity:0.3;}.cls-3{fill:#fff;}.cls-4{fill:#757889;}.cls-5{fill:#2b374f;}</style></defs><title>devil-fork-filled</title><polygon class="cls-1" points="289.46 12.87 289.46 12.93 266.71 117.73 225.71 76.74 184.66 35.68 289.46 12.87"/><polygon class="cls-1" points="430.74 81.25 430.74 81.31 407.99 186.04 366.93 145.05 325.94 104.06 430.74 81.25"/><polygon class="cls-1" points="499.12 222.52 476.31 327.32 435.31 286.33 394.26 245.34 499.12 222.52"/><g class="cls-2"><polygon class="cls-3" points="289.46 12.87 289.46 12.93 225.71 76.74 184.66 35.68 289.46 12.87"/></g><g class="cls-2"><polygon class="cls-3" points="430.74 81.25 430.74 81.31 366.93 145.05 325.94 104.06 430.74 81.25"/></g><g class="cls-2"><polygon class="cls-3" points="499.12 222.52 435.31 286.33 394.26 245.34 499.12 222.52"/></g><path class="cls-4" d="M417.07,268.1l-36.46,36.46a51.56,51.56,0,0,1-72.92,0l-31.9-31.9L385.17,163.29l-36.46-36.46L239.33,236.2l-31.9-31.9a51.56,51.56,0,0,1,0-72.92l36.46-36.46L207.43,58.47,171,94.93a103.11,103.11,0,0,0,0,145.83l31.9,31.9L20.42,455.1a25.78,25.78,0,0,0,0,36.46h0a25.78,25.78,0,0,0,36.46,0L239.33,309.12l31.9,31.9a103.13,103.13,0,0,0,145.84,0l36.46-36.46Z"/><path class="cls-5" d="M508.22,213.42a12.91,12.91,0,0,0-11.85-3.48L391.55,232.72a12.89,12.89,0,0,0-6.38,21.71l13.67,13.67L371.5,295.45a38.72,38.72,0,0,1-54.69,0L294,272.66l91.15-91.15,13.67,13.67a12.89,12.89,0,0,0,21.71-6.38L443.34,84A12.89,12.89,0,0,0,428,68.66L323.19,91.44a12.89,12.89,0,0,0-6.38,21.71l13.67,13.67L239.33,218l-22.79-22.78a38.67,38.67,0,0,1,0-54.69l27.35-27.34,13.67,13.67a12.89,12.89,0,0,0,21.71-6.38L302.06,15.63A12.89,12.89,0,0,0,286.72.3L181.9,23.09a12.89,12.89,0,0,0-6.38,21.71L189.2,58.47,161.85,85.81a116,116,0,0,0,0,164.06l22.79,22.79L11.31,446A38.67,38.67,0,0,0,66,500.67L239.33,327.35l22.79,22.78a116,116,0,0,0,164.07,0l27.35-27.34,13.67,13.67a12.89,12.89,0,0,0,21.71-6.38l22.79-104.82A12.88,12.88,0,0,0,508.22,213.42ZM413.89,98.11l-13.51,62.16-48.64-48.64ZM259.1,91.9,210.46,43.26l62.15-13.51ZM408,331.91a90.23,90.23,0,0,1-127.61,0l-41-41L47.77,482.45a12.89,12.89,0,1,1-18.23-18.23L221.1,272.66l-41-41a90.23,90.23,0,0,1,0-127.61L207.43,76.7l18.23,18.23-27.34,27.34a64.45,64.45,0,0,0,0,91.15l41,41L348.71,145.06l18.23,18.23L257.56,272.66l41,41a64.45,64.45,0,0,0,91.15,0l27.34-27.34,9.12,9.11,9.12,9.12Zm60.78-30.36L420.1,252.9l62.16-13.51Z"/></svg>