<svg id="Layer_1" data-name="Layer 1" xmlns="http://www.w3.org/2000/svg" viewBox="0 0 512 512"><defs><style>.cls-1{fill:#9acc79;}.cls-2{fill:#757889;}.cls-3{opacity:0.3;}.cls-4{fill:#fff;}.cls-5{opacity:0.15;}.cls-6{fill:#9bd162;}.cls-7{fill:#2b374f;}</style></defs><title>frankenstein-filled</title><path class="cls-1" d="M57.6,320H70.4V230.4H57.6a32,32,0,0,0-32,32V288A32,32,0,0,0,57.6,320Z"/><path class="cls-1" d="M454.4,320H441.6V230.4h12.8a32,32,0,0,1,32,32V288A32,32,0,0,1,454.4,320Z"/><path class="cls-1" d="M441.6,121.6v192a185.6,185.6,0,1,1-371.2,0v-192Z"/><path class="cls-2" d="M441.6,76.8v44.8H70.4V76.8a64,64,0,0,1,64-64H377.6A64,64,0,0,1,441.6,76.8Z"/><g class="cls-3"><path class="cls-4" d="M206,492.35A185.53,185.53,0,0,1,70.4,313.6V76.8a64,64,0,0,1,64-64h3.33A86.09,86.09,0,0,0,121.6,63.36V318C121.6,390,155,453.7,206,492.35Z"/></g><g class="cls-5"><path d="M441.6,76.8V313.6A185.53,185.53,0,0,1,306,492.35C357,453.7,390.4,390,390.4,318V63.36A86.09,86.09,0,0,0,374.27,12.8h3.33A64,64,0,0,1,441.6,76.8Z"/></g><path class="cls-4" d="M128,291.95a38.16,38.16,0,0,0,.82,7.46c2.84,13.51,13.09,24.2,25.65,26.49,20.12,3.67,37.53-13.12,37.53-34.34v-.1a9.76,9.76,0,0,0-9.51-9.85H137.55C132.29,281.6,127.94,286.23,128,291.95Z"/><path class="cls-4" d="M320,291.95a38.16,38.16,0,0,0,.82,7.46c2.84,13.51,13.09,24.2,25.65,26.49,20.12,3.67,37.53-13.12,37.53-34.34v-.1a9.76,9.76,0,0,0-9.51-9.85H329.55C324.29,281.6,319.94,286.23,320,291.95Z"/><path class="cls-6" d="M327.9,428.8C313.53,421.16,286.77,416,256,416s-57.53,5.16-71.9,12.8"/><path class="cls-2" d="M256,364.8h0a25.6,25.6,0,0,1-25.6-25.6V281.6h51.2v57.6A25.6,25.6,0,0,1,256,364.8Z"/><polyline class="cls-4" points="128 192 140.8 211.2 166.4 211.2 179.2 230.4"/><path class="cls-7" d="M499.2,198.4v-64H473.6v19.2H454.4V76.8A76.89,76.89,0,0,0,377.6,0H134.4A76.89,76.89,0,0,0,57.6,76.8v76.8H38.4V134.4H12.8v64H38.4V179.2H57.6v38.4a44.85,44.85,0,0,0-44.8,44.8V288a44.85,44.85,0,0,0,44.8,44.8h.93C68.22,433.22,153.08,512,256,512s187.78-78.78,197.47-179.2h.93A44.85,44.85,0,0,0,499.2,288V262.4a44.85,44.85,0,0,0-44.8-44.8V179.2h19.2v19.2ZM134.4,25.6H377.6a51.26,51.26,0,0,1,51.2,51.2v32h-32V96a12.8,12.8,0,0,0-25.6,0v12.8H345.6V96A12.8,12.8,0,0,0,320,96v12.8H294.4V96a12.8,12.8,0,0,0-25.6,0v12.8H243.2V96a12.8,12.8,0,0,0-25.6,0v12.8H192V96a12.8,12.8,0,0,0-25.6,0v12.8H140.8V96a12.8,12.8,0,0,0-25.6,0v12.8h-32v-32A51.26,51.26,0,0,1,134.4,25.6ZM38.4,288V262.4a19.22,19.22,0,0,1,19.2-19.2v64A19.22,19.22,0,0,1,38.4,288Zm435.2-25.6V288a19.22,19.22,0,0,1-19.2,19.2v-64A19.22,19.22,0,0,1,473.6,262.4Zm-44.8,51.2c0,95.28-77.52,172.8-172.8,172.8S83.2,408.88,83.2,313.6V134.4h32v12.8a12.8,12.8,0,0,0,25.6,0V134.4h25.6v12.8a12.8,12.8,0,0,0,25.6,0V134.4h25.6v12.8a12.8,12.8,0,0,0,25.6,0V134.4h25.6v12.8a12.8,12.8,0,0,0,25.6,0V134.4H320v12.8a12.8,12.8,0,0,0,25.6,0V134.4h25.6v12.8a12.8,12.8,0,0,0,25.6,0V134.4h32V313.6Z"/><path class="cls-7" d="M333.91,417.5c-16.83-9-46-14.3-77.91-14.3s-61.08,5.35-77.91,14.3a12.8,12.8,0,1,0,12,22.6c12.9-6.87,38.77-11.3,65.88-11.3s53,4.43,65.88,11.3a12.8,12.8,0,1,0,12-22.6Z"/><path class="cls-7" d="M403.2,268.8H108.8a12.8,12.8,0,0,0,0,25.6h6.48a51.06,51.06,0,0,0,1,7.64c3.91,18.6,18.33,33.25,35.88,36.45a44.16,44.16,0,0,0,7.92.72,42.66,42.66,0,0,0,27.54-10.15,48.34,48.34,0,0,0,17.07-34.66H217.6v44.8a38.4,38.4,0,0,0,76.8,0V294.4h12.88a51.06,51.06,0,0,0,1,7.64c3.91,18.6,18.33,33.25,35.88,36.45a44.16,44.16,0,0,0,7.92.72,42.67,42.67,0,0,0,27.55-10.15,48.36,48.36,0,0,0,17.07-34.66h6.49a12.8,12.8,0,0,0,0-25.6Zm-232,40.6a17.18,17.18,0,0,1-14.48,3.9c-7.31-1.33-13.65-8.13-15.42-16.54q-.25-1.18-.38-2.36H179A23,23,0,0,1,171.24,309.4Zm97.56,29.8a12.8,12.8,0,0,1-25.6,0V294.4h25.6Zm94.44-29.8a17.19,17.19,0,0,1-14.48,3.9c-7.31-1.33-13.65-8.13-15.42-16.54q-.25-1.18-.38-2.36H371A23,23,0,0,1,363.24,309.4Z"/><path class="cls-7" d="M130.15,218.3A12.8,12.8,0,0,0,140.8,224h18.75l9,13.5a12.8,12.8,0,0,0,21.3-14.2L177,204.1a12.8,12.8,0,0,0-10.65-5.7H147.65l-9-13.5a12.8,12.8,0,0,0-21.3,14.2Z"/></svg>