<svg id="Layer_1" data-name="Layer 1" xmlns="http://www.w3.org/2000/svg" viewBox="0 0 512 512"><defs><style>.cls-1{fill:#f2496d;}.cls-2{fill:#e4e6ea;}.cls-3{opacity:0.6;}.cls-4{fill:#fff;}.cls-5{opacity:0.12;}.cls-6{fill:#ffb85a;}.cls-7{fill:#2b374f;}</style></defs><title>eye-filled</title><path class="cls-1" d="M111.38,256A108.14,108.14,0,0,1,128,313.6v96a25.6,25.6,0,0,0,51.2,0v-6.4c0-13.37,12.23-25.6,25.6-25.6,12.8,0,25.6,10.63,25.6,25.6v70.4a25.6,25.6,0,0,0,51.2,0V428.8c0-13.37,12.23-25.6,25.6-25.6,12.8,0,25.6,9.53,25.6,24.5v7.5a25.6,25.6,0,0,0,51.2,0V313.6A107.85,107.85,0,0,1,400.6,256Z"/><path class="cls-2" d="M422.4,179.2A166.33,166.33,0,0,1,294.53,341.06a165.61,165.61,0,0,1-77.06,0,166.37,166.37,0,0,1,0-323.71,165.61,165.61,0,0,1,77.06,0A166.33,166.33,0,0,1,422.4,179.2Z"/><g class="cls-3"><path class="cls-4" d="M217.47,341.06a166.37,166.37,0,0,1,0-323.71c-49.92,34-83.07,93.82-83.07,161.86S167.55,307,217.47,341.06Z"/></g><g class="cls-5"><path d="M422.4,179.2A166.33,166.33,0,0,1,294.53,341.06c49.92-34,83.07-93.82,83.07-161.86S344.45,51.39,294.53,17.34A166.33,166.33,0,0,1,422.4,179.2Z"/></g><circle class="cls-6" cx="256" cy="179.2" r="70.4"/><path class="cls-7" d="M256,262.4a83.2,83.2,0,1,0-83.2-83.2A83.29,83.29,0,0,0,256,262.4Zm0-140.8a57.6,57.6,0,1,1-57.6,57.6A57.67,57.67,0,0,1,256,121.6Z"/><circle class="cls-7" cx="256" cy="179.2" r="25.6"/><path class="cls-7" d="M423.76,243.2h-.38a178.29,178.29,0,0,0,11.82-64C435.2,80.39,354.81,0,256,0S76.8,80.39,76.8,179.2a178.29,178.29,0,0,0,11.82,64h-.36l.92,1.47a179,179,0,0,0,21,38.64,95.1,95.1,0,0,1,5,30.28v96a38.4,38.4,0,1,0,76.8,0v-6.4c0-6.34,6.46-12.8,12.8-12.8,6.06,0,12.8,5.26,12.8,12.8v70.4a38.4,38.4,0,1,0,76.8,0V428.8c0-6.34,6.46-12.8,12.8-12.8,5.31,0,12.8,3.63,12.8,11.7v7.5a38.4,38.4,0,0,0,76.8,0V313.6a95.34,95.34,0,0,1,4.92-30.21,179.05,179.05,0,0,0,21.08-38.65ZM256,25.6c84.69,0,153.6,68.9,153.6,153.6S340.69,332.8,256,332.8,102.4,263.9,102.4,179.2,171.31,25.6,256,25.6ZM358.4,448a12.81,12.81,0,0,1-12.8-12.8v-7.5c0-23-19.93-37.3-38.4-37.3-20.46,0-38.4,17.94-38.4,38.4v44.8a12.8,12.8,0,0,1-25.6,0V403.2c0-20.82-17.59-38.4-38.4-38.4-20.46,0-38.4,17.94-38.4,38.4v6.4a12.8,12.8,0,1,1-25.6,0V316.35a178.82,178.82,0,0,0,230.4,0V435.2A12.81,12.81,0,0,1,358.4,448Z"/><circle class="cls-4" cx="236.8" cy="160" r="19.2"/></svg>