<svg id="Layer_1" data-name="Layer 1" xmlns="http://www.w3.org/2000/svg" viewBox="0 0 512 512"><defs><style>.cls-1{fill:#ffb85a;}.cls-2{opacity:0.3;}.cls-3{fill:#fff;}.cls-4{opacity:0.2;}.cls-5{fill:#2b374f;}</style></defs><title>candy-filled</title><path class="cls-1" d="M355.15,355.15C305.55,404.75,232.4,414.86,177.8,384a130.95,130.95,0,0,1-49.73-49.6c-31-54.59-20.93-127.94,28.74-177.6S279.69,97.1,334.29,128a131,131,0,0,1,49.6,49.54v.06C414.86,232.2,404.75,305.55,355.15,355.15Z"/><g class="cls-2"><path class="cls-3" d="M156.81,156.81c-49.66,49.66-59.71,123-28.74,177.6,0-2.3.06-4.61.13-6.91C130.06,276,151.82,227,189.39,189.32,228.3,150.41,281,128.07,334.29,128,279.69,97.1,206.41,107.21,156.81,156.81Z"/></g><g class="cls-4"><path d="M383.89,177.61c0,51.65-20.48,104.45-61.18,145.09C283.85,361.61,231,383.95,177.8,384c54.59,30.85,127.75,20.74,177.35-28.86S414.86,232.2,383.89,177.61Z"/></g><path class="cls-1" d="M354,15.84c-6.8-4.86-14.63-3.7-16.91,2.29l-36.64,96.48a135.74,135.74,0,0,1,16.77,5.32l.43.17q3.67,1.45,7.26,3.12l1.13.53c2.41,1.15,4.79,2.36,7.14,3.66l.4.21q3.77,2.1,7.41,4.46l.9.61q3,2,5.85,4.09c.65.48,1.29,1,1.93,1.47q2.43,1.87,4.79,3.87c.62.53,1.26,1,1.87,1.59,2.1,1.85,4.17,3.75,6.17,5.75s3.72,3.86,5.48,5.85c.52.59,1,1.2,1.52,1.79,1.24,1.45,2.45,2.91,3.62,4.41.51.66,1,1.32,1.51,2q1.73,2.3,3.35,4.66c.4.58.79,1.16,1.18,1.74q1.87,2.83,3.59,5.74c.16.27.33.54.49.81A133.37,133.37,0,0,1,396,206.62l97.48-31.68c6.32-2.05,7.62-10,2.69-17.05-24.76-35.25-3.62-64.14-40.56-101.08C418.51,19.66,389.5,41.23,354,15.84Z"/><path class="cls-1" d="M176.47,383.23l-.81-.49q-2.91-1.72-5.74-3.59L168.18,378q-2.36-1.62-4.66-3.35c-.66-.5-1.33-1-2-1.51-1.49-1.17-3-2.38-4.41-3.62-.6-.51-1.21-1-1.79-1.52-2-1.76-3.95-3.58-5.85-5.48s-3.91-4.07-5.75-6.17c-.54-.62-1.06-1.25-1.59-1.87q-2-2.36-3.87-4.79c-.49-.64-1-1.28-1.47-1.94q-2.13-2.88-4.09-5.85c-.2-.3-.41-.59-.61-.9q-2.36-3.64-4.46-7.41l-.21-.4c-1.3-2.35-2.51-4.73-3.66-7.14l-.53-1.13q-1.67-3.59-3.12-7.26l-.17-.43a135.82,135.82,0,0,1-5.32-16.77L18.13,337.08c-6,2.28-7.16,10.11-2.29,16.91,25.4,35.51,3.82,64.52,41,101.66,36.94,36.94,65.83,15.8,101.08,40.56,7,4.93,15,3.63,17.05-2.69L206.62,396A133.4,133.4,0,0,1,176.47,383.23Z"/><path class="cls-5" d="M506.68,150.53c-9.15-13-10.79-24.88-12.69-38.6-2.63-19-5.62-40.5-29.29-64.17S419.51,21.1,400.53,18.47c-13.88-1.93-25.88-3.59-39.09-13C354.36.37,346.05-1.25,338.66,1a20.81,20.81,0,0,0-13.55,12.6L292.37,99.82a157.76,157.76,0,0,0-31.65-2.06c-42.09,1.5-82.2,19.26-112.94,50s-48.51,70.86-50,112.95a157.22,157.22,0,0,0,2,31.66L13.58,325.12A20.82,20.82,0,0,0,1,338.67c-2.23,7.39-.61,15.69,4.44,22.77,9.46,13.22,11.12,25.21,13,39.09,2.63,19,5.61,40.5,29.29,64.17S92.95,491.36,111.93,494c13.73,1.9,25.58,3.55,38.6,12.69A28.25,28.25,0,0,0,166.64,512a22.79,22.79,0,0,0,7.21-1.14,20.74,20.74,0,0,0,13.28-13.38l28-86.13a155.45,155.45,0,0,0,30.35,3q2.89,0,5.79-.1c42.09-1.5,82.2-19.26,112.94-50,41.3-41.3,57.2-98,47-149.05l86.25-28a20.7,20.7,0,0,0,13.38-13.26C513.32,166.48,511.76,157.76,506.68,150.53ZM164.24,485c-17.71-12.1-34.21-14.38-48.79-16.4-17.17-2.38-32-4.44-49.59-22s-19.65-32.42-22-49.59c-2.05-14.81-4.37-31.56-16.94-49.56l79.34-30.13a144.42,144.42,0,0,0,15.62,31.45L75.38,379.43a12.8,12.8,0,0,0,14.1,21.37l48.37-31.91c.43.45.87.89,1.3,1.34l-31.9,48.34a12.8,12.8,0,1,0,21.36,14.1L158.72,387a144.16,144.16,0,0,0,31.78,17.16ZM346.1,346.09c-26.15,26.15-60.16,41.25-95.76,42.53a129.62,129.62,0,0,1-35.28-3.48l-4.91-1.41a120.66,120.66,0,0,1-27.26-11.57l0,.05-.16-.1,0-.05-.57-.34c-1.75-1-3.47-2.11-5.24-3.28l-1.52-1c-1.43-1-2.83-2-4.63-3.34l-1.36-1c-1.34-1.06-2.67-2.16-4-3.26l-.86-.73a12.77,12.77,0,0,0-1-.84c-1.72-1.54-3.43-3.11-5.09-4.78-1.81-1.81-3.53-3.68-5.21-5.59l-1.41-1.67c-.49-.57-1-1.15-1.45-1.74-.16-.22-.35-.43-.53-.65-.54-.67-1.09-1.37-1.65-2.1l-1.21-1.59c-1.28-1.73-2.51-3.48-3.72-5.32l0,0-.51-.77,0,0c-1.42-2.19-2.76-4.42-3.9-6.46l-.32-.6c-1.17-2.11-2.26-4.25-3.31-6.46l-.47-1c-1-2.16-1.94-4.34-3-7A122.4,122.4,0,0,1,127,297.36l-.94-3.81a130.13,130.13,0,0,1-2.74-31.92c1.27-35.6,16.37-69.61,42.53-95.76s60.16-41.25,95.76-42.53q2.44-.09,4.84-.09a129.32,129.32,0,0,1,27.2,2.86l3.69.92a125,125,0,0,1,15.58,5c2.21.87,4.39,1.81,7,3l.62.29c2.17,1,4.33,2.13,6.8,3.49,2.27,1.27,4.51,2.61,6.86,4.14l.65.44q2.68,1.77,5.28,3.69l1.76,1.34c1.46,1.12,2.88,2.27,4.32,3.5l1.68,1.41c1.9,1.67,3.77,3.38,5.59,5.21s3.29,3.42,4.87,5.2c.2.25.4.48.61.71l.86,1c1.11,1.3,2.2,2.61,3.22,3.93l1.38,1.81c1,1.39,2.06,2.8,3,4.16l1.11,1.63c1.13,1.7,2.21,3.42,3.16,5l.51.84,0,0q.9,1.55,1.75,3.14l0,.07q2.6,4.82,4.77,9.93l.05.12q.66,1.56,1.28,3.14l.2.51q.54,1.4,1,2.82l.24.66q.48,1.37.93,2.76l.23.7q.48,1.5.92,3C396.79,255.17,384,308.19,346.1,346.09Zm58-155.56c-.11-.28-.23-.56-.34-.84q-.73-1.86-1.51-3.71c-.15-.34-.29-.69-.44-1q-1-2.24-2-4.45l-.54-1.11q-.94-1.95-1.95-3.87l-.36-.7q-1.23-2.31-2.54-4.59l-.08-.15-.16-.26q-3.3-5.68-7.15-11.1l45.64-30.12a12.8,12.8,0,0,0-14.1-21.37l-48.34,31.9c-.44-.43-.89-.87-1.33-1.3L400.8,89.47a12.8,12.8,0,0,0-21.38-14.09l-30.66,46.48a144.62,144.62,0,0,0-31.45-15.61l30.14-79.36c18,12.56,34.76,14.88,49.56,16.93,17.17,2.38,32,4.44,49.59,22s19.65,32.42,22,49.59c2,14.59,4.31,31.08,16.41,48.79Z"/><circle class="cls-5" cx="314.61" cy="196.27" r="16.74" transform="translate(-46.64 279.95) rotate(-45)"/><circle class="cls-5" cx="275.16" cy="235.72" r="16.74" transform="translate(-86.08 263.61) rotate(-45)"/><circle class="cls-5" cx="235.72" cy="275.16" r="16.74" transform="translate(-125.53 247.28) rotate(-45)"/><circle class="cls-5" cx="196.27" cy="314.61" r="16.74" transform="translate(-164.98 230.93) rotate(-45)"/><circle class="cls-5" cx="334.33" cy="255.44" r="16.74" transform="translate(-82.7 311.23) rotate(-45)"/><circle class="cls-5" cx="303.28" cy="303.28" r="16.74" transform="translate(-125.62 303.27) rotate(-45)"/><circle class="cls-5" cx="255.44" cy="334.33" r="16.74" transform="translate(-161.59 278.55) rotate(-45)"/><circle class="cls-5" cx="255.44" cy="176.55" r="16.74" transform="translate(-50.02 232.33) rotate(-45)"/><circle class="cls-5" cx="208.75" cy="208.75" r="16.74" transform="translate(-86.47 208.75) rotate(-45)"/><circle class="cls-5" cx="176.55" cy="255.44" r="16.74" transform="translate(-128.91 199.65) rotate(-45)"/></svg>