<svg id="Layer_1" data-name="Layer 1" xmlns="http://www.w3.org/2000/svg" viewBox="0 0 512 512"><defs><style>.cls-1{fill:#9acc79;}.cls-2{fill:#ffb85a;}.cls-3{fill:#fe9;}.cls-4{fill:#ffe655;}.cls-5{opacity:0.3;}.cls-6{fill:#fff;}.cls-7{opacity:0.2;}.cls-8{fill:#2b374f;}</style></defs><title>pumpkin-filled</title><path class="cls-1" d="M294.4,160c0-47.6,14.27-82.7,51.2-96L307.2,25.6c-45.31,24.95-89.6,73-89.6,134.4Z"/><path class="cls-2" d="M499.2,313.6c0,94-75.33,170.62-168.83,172.67,0,0,0,.06-.06,0-1.28.13-2.62.13-3.9.13H185.6c-1.28,0-2.62,0-3.9-.13-93.5-2-168.9-78.66-168.9-172.67S88.32,142.85,181.89,140.93a36,36,0,0,1,3.71-.13,171.42,171.42,0,0,1,65.54,12.93l4.86,2,4.86-2A171.42,171.42,0,0,1,326.4,140.8a36,36,0,0,1,3.71.13c.06-.06.06,0,.06,0C423.74,142.91,499.2,219.52,499.2,313.6Z"/><polygon class="cls-3" points="204.8 256 128 217.6 115.2 294.4 204.8 256"/><polygon class="cls-3" points="307.2 256 384 217.6 396.8 294.4 307.2 256"/><polygon class="cls-4" points="256 249.6 288 300.8 224 300.8 256 249.6"/><path class="cls-3" d="M236.8,352v25.6H198.4V352h-64c26.8,50.25,71.23,83.2,121.6,83.2,2.15,0,4.27-.14,6.4-.26V403.2h38.4v22.95c31.43-13.06,58.31-39.48,76.8-74.15Z"/><g class="cls-5"><path class="cls-6" d="M181.7,486.27c-93.5-2-168.9-78.66-168.9-172.67S88.32,142.85,181.89,140.93C113,168,64,235.14,64,313.6S112.83,459.14,181.7,486.27Z"/></g><g class="cls-7"><path d="M499.2,313.6c0,94-75.33,170.62-168.83,172.67C399.17,459.14,448,391.94,448,313.6S399.1,168,330.18,140.93C423.74,142.91,499.2,219.52,499.2,313.6Z"/></g><path class="cls-8" d="M217.59,256.38a12.8,12.8,0,0,0-7.07-11.83l-76.8-38.4a12.8,12.8,0,0,0-18.35,9.35l-12.8,76.8a12.8,12.8,0,0,0,17.67,13.87l89.6-38.4A12.79,12.79,0,0,0,217.59,256.38Zm-85.92,17,6.1-36.61,36.62,18.31Z"/><path class="cls-8" d="M396.63,215.5a12.8,12.8,0,0,0-18.35-9.35l-76.8,38.4a12.8,12.8,0,0,0,.68,23.22l89.6,38.4a12.8,12.8,0,0,0,17.67-13.87Zm-59,39.61,36.62-18.31,6.1,36.61Z"/><path class="cls-8" d="M212.81,307A12.8,12.8,0,0,0,224,313.6h64A12.8,12.8,0,0,0,298.86,294l-32-51.2a12.8,12.8,0,0,0-21.71,0l-32,51.2A12.81,12.81,0,0,0,212.81,307ZM256,273.75,264.91,288H247.09Z"/><path class="cls-8" d="M377.6,339.2H236.8A12.8,12.8,0,0,0,224,352v12.8H211.2V352a12.8,12.8,0,0,0-12.8-12.8h-64A12.8,12.8,0,0,0,123.11,358c30,56.34,79.73,90,132.89,90,2.08,0,4.14-.11,6.2-.23l.91,0a12.8,12.8,0,0,0,12.09-12.78V416H288v10.15A12.8,12.8,0,0,0,305.71,438c33.59-14,63.13-42.35,83.18-79.94A12.8,12.8,0,0,0,377.6,339.2Zm-64,65.86V403.2a12.8,12.8,0,0,0-12.8-12.8H262.4a12.8,12.8,0,0,0-12.8,12.8v19c-35.14-2.26-68.32-23.05-92.38-57.39H185.6v12.8a12.8,12.8,0,0,0,12.8,12.8h38.4a12.8,12.8,0,0,0,12.8-12.8V364.8H354.77C343,381.55,329,395.25,313.6,405.06Z"/><path class="cls-8" d="M326.4,128q-8.32,0-16.52.74c5.3-27.59,18.53-44.94,40.06-52.69A12.8,12.8,0,0,0,354.65,55l-38.4-38.4A12.79,12.79,0,0,0,301,14.39c-39.28,21.62-80.81,61.86-92.79,115A187,187,0,0,0,185.6,128C83.26,128,0,211.26,0,313.6S83.26,499.2,185.6,499.2H326.4c102.34,0,185.6-83.26,185.6-185.6S428.74,128,326.4,128ZM305.14,41.64,323.9,60.4c-22.53,14.33-36.12,38.66-40.62,72.66A184.67,184.67,0,0,0,256,141.87a185,185,0,0,0-22.63-7.63C242.89,93.27,273.9,61.05,305.14,41.64Zm21.26,432H185.6c-88.22,0-160-71.78-160-160s71.78-160,160-160a158.77,158.77,0,0,1,65.18,13.88l5.22,2.33,5.22-2.33A158.77,158.77,0,0,1,326.4,153.6c88.22,0,160,71.77,160,160S414.63,473.6,326.4,473.6Z"/></svg>