<svg id="Layer_1" data-name="Layer 1" xmlns="http://www.w3.org/2000/svg" viewBox="0 0 512 512"><defs><style>.cls-1{fill:#e4e6ea;}.cls-2{opacity:0.12;}.cls-3{opacity:0.74;}.cls-4{fill:#fff;}.cls-5{fill:#757889;}.cls-6{fill:#2b374f;}</style></defs><title>hockey-mask-filled</title><path class="cls-1" d="M441.5,233.8c0,38.25-26.61,110.09-59.68,184.55-19.06,43-55.4,68.83-95.12,77.53a144.05,144.05,0,0,1-61.41,0c-39.72-8.7-76.06-34.54-95.12-77.53C97.11,343.89,70.5,272.05,70.5,233.8c0-83.61,57.06-154.1,135-175.72a188.28,188.28,0,0,1,101.07,0C384.45,79.7,441.5,150.19,441.5,233.8Z"/><g class="cls-2"><path d="M306.53,58.08c50.66,38.32,83.8,101.32,83.8,172.39,0,37.87-20.47,106.89-60.77,205.08-10,24.24-24.69,44.65-42.86,60.32,39.72-8.7,76.06-34.54,95.12-77.53,33.07-74.46,59.68-146.29,59.68-184.55C441.5,150.19,384.45,79.7,306.53,58.08Z"/></g><g class="cls-3"><path class="cls-4" d="M182.44,435.55c-40.3-98.19-60.77-167.21-60.77-205.08,0-71.07,33.14-134.08,83.8-172.39-77.91,21.62-135,92.11-135,175.72,0,38.25,26.61,110.09,59.68,184.55,19.06,43,55.4,68.83,95.12,77.53C207.13,480.2,192.42,459.8,182.44,435.55Z"/></g><path class="cls-5" d="M336.43,206l-45.33,19.43c-5.49,2.35-9.49,7.59-9.51,13.56v.11c0,21.2,20,38.38,44.78,38.38s44.78-17.18,44.78-38.38c0-13.91-8.64-26.06-21.57-32.79A15.42,15.42,0,0,0,336.43,206Z"/><path class="cls-5" d="M175.61,206l46,19.71a14.55,14.55,0,0,1,8.82,13.37h0c0,21.2-20,38.38-44.78,38.38s-44.78-17.18-44.78-38.38c0-13.88,8.61-26,21.5-32.75A15.47,15.47,0,0,1,175.61,206Z"/><path class="cls-1" d="M256,51.17a189.27,189.27,0,0,1,32,2.76V19.19a6.4,6.4,0,0,0-6.4-6.4H230.41a6.4,6.4,0,0,0-6.4,6.4V53.93A189.27,189.27,0,0,1,256,51.17Z"/><path class="cls-1" d="M438,198.3a180.72,180.72,0,0,1,3.54,35.53c0,8.06-1.24,17.68-3.42,28.44h35.41a6.4,6.4,0,0,0,6.4-6.4V204.7a6.4,6.4,0,0,0-6.4-6.4Z"/><path class="cls-1" d="M70.5,233.83A180.72,180.72,0,0,1,74,198.3H38.51a6.4,6.4,0,0,0-6.4,6.4v51.17a6.4,6.4,0,0,0,6.4,6.4H73.92C71.74,251.51,70.5,241.88,70.5,233.83Z"/><path class="cls-6" d="M355.48,195a28,28,0,0,0-24.09-.72l-45.34,19.43a27.9,27.9,0,0,0-17.26,25.43c0,28.22,25.82,51.17,57.57,51.17s57.57-23,57.57-51.17C383.93,221,373,204.11,355.48,195ZM326.36,264.7c-17.63,0-32-11.48-32-25.66a2.73,2.73,0,0,1,1.76-1.84l45.33-19.43a2.76,2.76,0,0,1,2.21-.1c9.2,4.78,14.68,12.8,14.68,21.44C358.35,253.22,344,264.7,326.36,264.7Z"/><path class="cls-6" d="M226.64,214l-46-19.71a28.18,28.18,0,0,0-24.21.75c-17.5,9.14-28.37,26-28.37,44.09,0,28.22,25.82,51.17,57.57,51.17s57.57-23,57.57-51.2A27.36,27.36,0,0,0,226.64,214Zm-41,50.72c-17.63,0-32-11.48-32-25.59,0-8.62,5.47-16.63,14.64-21.41a2,2,0,0,1,.93-.2,3.51,3.51,0,0,1,1.35.29l46,19.71a1.74,1.74,0,0,1,1.06,1.62C217.62,253.22,203.27,264.7,185.64,264.7Z"/><circle class="cls-6" cx="281.59" cy="121.54" r="12.79"/><circle class="cls-6" cx="230.41" cy="121.54" r="12.79"/><circle class="cls-6" cx="281.59" cy="172.71" r="12.79"/><circle class="cls-6" cx="230.41" cy="172.71" r="12.79"/><circle class="cls-6" cx="281.59" cy="326.23" r="12.79"/><circle class="cls-6" cx="230.41" cy="326.23" r="12.79"/><circle class="cls-6" cx="281.59" cy="377.41" r="12.79"/><circle class="cls-6" cx="230.41" cy="377.41" r="12.79"/><circle class="cls-6" cx="281.59" cy="428.58" r="12.79"/><circle class="cls-6" cx="230.41" cy="428.58" r="12.79"/><circle class="cls-6" cx="185.64" cy="351.82" r="12.79"/><circle class="cls-6" cx="332.76" cy="351.82" r="12.79"/><path class="cls-6" d="M473.49,185.5H448.16C429.93,115.1,372.81,59.85,300.78,43.41V19.19A19.21,19.21,0,0,0,281.59,0H230.41a19.21,19.21,0,0,0-19.19,19.19V43.41c-72,16.45-129.15,71.69-147.38,142.1H38.51A19.21,19.21,0,0,0,19.32,204.7v51.17a19.21,19.21,0,0,0,19.19,19.19H63.68c8.75,36.34,27.08,86,54.81,148.49C142.71,478.11,195.41,512,256,512s113.29-33.89,137.51-88.45c27.73-62.46,46.06-112.15,54.81-148.49h25.17a19.21,19.21,0,0,0,19.19-19.19V204.7A19.21,19.21,0,0,0,473.49,185.5ZM236.81,25.59h38.38V39.3q-7.13-.68-14.4-.86-2.4-.06-4.79-.06t-4.79.06q-7.27.17-14.4.86Zm-178,223.89H44.91V211.09H59.05q-.31,2.66-.56,5.35l-.06.61q-.2,2.35-.35,4.73c0,.34,0,.68-.07,1q-.13,2.21-.2,4.43c0,.39,0,.77,0,1.16-.05,1.81-.08,3.63-.08,5.45q0,1.69.06,3.47c0,.68.07,1.39.11,2.09,0,.5,0,1,.08,1.49.06.91.14,1.85.23,2.79,0,.31,0,.61.08.93.1,1.06.22,2.15.35,3.25,0,.21,0,.41.07.62S58.75,249.13,58.79,249.47ZM370.12,413.17c-20.06,45.18-63.79,73.25-114.12,73.25s-94.06-28.07-114.12-73.25c-33.25-74.89-48.46-121.29-54.73-150l-.69-3.42c-2.1-10.37-3.17-19.08-3.17-25.9q0-2.1.05-4.2c0-1.23.08-2.46.14-3.69,0-.13,0-.27,0-.4a169.58,169.58,0,0,1,3.05-24.6l.07-.35.23-1.15c14-66.82,68.08-119.4,136.31-132.37l3-.52a174.8,174.8,0,0,1,59.64,0l3,.52c68.23,13,122.29,65.56,136.31,132.37l.23,1.15.07.35a169.58,169.58,0,0,1,3.05,24.6c0,.13,0,.27,0,.4.06,1.23.11,2.46.14,3.69q.05,2.09.05,4.2c0,6.81-1.07,15.52-3.17,25.9l-.69,3.42C418.58,291.87,403.37,338.28,370.12,413.17Zm97-163.69H453.21c0-.35.07-.67.12-1s0-.41.07-.62c.13-1.1.25-2.19.35-3.25,0-.31.05-.62.08-.93.08-.94.17-1.88.23-2.79,0-.51.05-1,.08-1.49,0-.7.08-1.41.11-2.09q.06-1.78.06-3.47c0-1.82,0-3.64-.08-5.45,0-.39,0-.77,0-1.16q-.08-2.22-.2-4.43c0-.34,0-.68-.07-1q-.15-2.37-.35-4.73l-.06-.61q-.24-2.68-.56-5.35h14.14Z"/></svg>