<svg id="Layer_1" data-name="Layer 1" xmlns="http://www.w3.org/2000/svg" viewBox="0 0 512 512"><defs><style>.cls-1{fill:#e4e6ea;}.cls-2{fill:#f2496d;}.cls-3{opacity:0.2;}.cls-4{fill:#fff;}.cls-5{opacity:0.12;}.cls-6{fill:#2b374f;}</style></defs><title>calendar-filled</title><path class="cls-1" d="M12.8,182.4H499.2a0,0,0,0,1,0,0V478.2a5,5,0,0,1-5,5H17.8a5,5,0,0,1-5-5V182.4a0,0,0,0,1,0,0Z"/><path class="cls-2" d="M17.8,60.8H494.2a5,5,0,0,1,5,5V182.4a0,0,0,0,1,0,0H12.8a0,0,0,0,1,0,0V65.8A5,5,0,0,1,17.8,60.8Z"/><g class="cls-3"><path class="cls-4" d="M57.6,483.2H44.8a32,32,0,0,1-32-32V92.8a32,32,0,0,1,32-32H57.6Z"/></g><g class="cls-5"><path d="M499.2,92.8V451.2a32,32,0,0,1-32,32H454.4V60.8h12.8A32,32,0,0,1,499.2,92.8Z"/></g><path class="cls-6" d="M467.2,48H428.8V28.8a12.8,12.8,0,0,0-25.6,0V48H364.8V28.8a12.8,12.8,0,0,0-25.6,0V48H300.8V28.8a12.8,12.8,0,0,0-25.6,0V48H236.8V28.8a12.8,12.8,0,0,0-25.6,0V48H172.8V28.8a12.8,12.8,0,0,0-25.6,0V48H108.8V28.8a12.8,12.8,0,0,0-25.6,0V48H44.8A44.85,44.85,0,0,0,0,92.8V451.2A44.85,44.85,0,0,0,44.8,496H467.2A44.85,44.85,0,0,0,512,451.2V92.8A44.85,44.85,0,0,0,467.2,48Zm19.2,403.2a19.22,19.22,0,0,1-19.2,19.2H44.8a19.22,19.22,0,0,1-19.2-19.2v-256H486.4ZM25.6,169.6V92.8A19.22,19.22,0,0,1,44.8,73.6H83.2V92.8a12.8,12.8,0,1,0,25.6,0V73.6h38.4V92.8a12.8,12.8,0,1,0,25.6,0V73.6h38.4V92.8a12.8,12.8,0,1,0,25.6,0V73.6h38.4V92.8a12.8,12.8,0,1,0,25.6,0V73.6h38.4V92.8a12.8,12.8,0,1,0,25.6,0V73.6h38.4V92.8a12.8,12.8,0,1,0,25.6,0V73.6h38.4a19.22,19.22,0,0,1,19.2,19.2v76.8Z"/><path class="cls-6" d="M198.14,383.18a49.15,49.15,0,0,0,13.94,7.52,52,52,0,0,0,17.71,2.91,53.79,53.79,0,0,0,17.27-2.7,42.71,42.71,0,0,0,13.85-7.6,36.68,36.68,0,0,0,9.3-11.61,31.54,31.54,0,0,0,3.42-14.54,32,32,0,0,0-5.17-18q-5.17-7.84-15.17-11.6,7.36-5.23,10.7-11.36a25.56,25.56,0,0,0,3.33-12.34,29,29,0,0,0-3.07-13.48,29.94,29.94,0,0,0-8.33-10,37.72,37.72,0,0,0-12.19-6.21A50.19,50.19,0,0,0,228.91,272a46.74,46.74,0,0,0-13.23,2A50.5,50.5,0,0,0,203,279.77a33.71,33.71,0,0,0-9.55,9,19.83,19.83,0,0,0-3.77,11.79A13.45,13.45,0,0,0,192.7,309a12.4,12.4,0,0,0,3.68,3,9.83,9.83,0,0,0,4.82,1.19,12.52,12.52,0,0,0,7.89-2.31,56.06,56.06,0,0,0,5.62-4.95,44,44,0,0,1,5.87-4.95q3.24-2.31,8.68-2.31a13.57,13.57,0,0,1,7.46,2.06A7,7,0,0,1,240,307c0,3.17-1,5.53-2.9,7.12a17.31,17.31,0,0,1-7.8,3.32q-8.41,1.73-11.66,4.11t-3.25,7.59q0,6.32,3.86,9.09a14.85,14.85,0,0,0,8.24,2.93,34.26,34.26,0,0,1,6.66.63,19.8,19.8,0,0,1,5.61,2,10.64,10.64,0,0,1,3.94,3.72,11.1,11.1,0,0,1,1.49,6,12.81,12.81,0,0,1-4,9.49A14,14,0,0,1,230,367a19.53,19.53,0,0,1-8.07-1.45,20.07,20.07,0,0,1-5.34-3.5,25.09,25.09,0,0,1-3.86-4.61,36.53,36.53,0,0,0-3.51-4.61,19.17,19.17,0,0,0-4.2-3.5,11.91,11.91,0,0,0-6.23-1.45,11.43,11.43,0,0,0-4.64,1,14.67,14.67,0,0,0-4.21,2.72,15,15,0,0,0-3.07,4,10.19,10.19,0,0,0-1.23,4.86,24.72,24.72,0,0,0,3.33,12.13A35.29,35.29,0,0,0,198.14,383.18Z"/><path class="cls-6" d="M289.05,297.62H298v81.45c0,4.85,1.34,8.48,4,10.91a16,16,0,0,0,20.33,0c2.69-2.43,4-6.06,4-10.92V285.72a15.94,15.94,0,0,0-1.32-6.95,11.43,11.43,0,0,0-3.33-4.23,11,11,0,0,0-4.56-2,24.77,24.77,0,0,0-5-.51H289.05q-6.67,0-9.91,4a13.55,13.55,0,0,0,0,17.58Q282.38,297.62,289.05,297.62Z"/></svg>