<svg id="Layer_1" data-name="Layer 1" xmlns="http://www.w3.org/2000/svg" viewBox="0 0 512 512"><defs><style>.cls-1{fill:#e4e6ea;}.cls-2{fill:#ffb85a;}.cls-3{opacity:0.12;}.cls-4{fill:#2b374f;}</style></defs><title>magic-wand-filled</title><path class="cls-1" d="M20.28,491.72h0a25.6,25.6,0,0,1,0-36.2L288.91,186.88l36.21,36.21L56.48,491.72A25.6,25.6,0,0,1,20.28,491.72Z"/><path class="cls-2" d="M445.95,213.51l-59.07-1.28-33.79,48.13a12.81,12.81,0,0,1-22.66-3.46l-18.18-57.15-57.15-18.18a12.81,12.81,0,0,1-3.46-22.66l48.13-33.79-1.28-59.07A12.82,12.82,0,0,1,319,55.55L366.78,91.4,423.1,72.71A12.78,12.78,0,0,1,439.29,88.9L420.6,145.22,456.45,193A12.82,12.82,0,0,1,445.95,213.51Z"/><g class="cls-3"><path d="M445.95,213.51l-59.07-1.28-33.79,48.13a12.81,12.81,0,0,1-22.66-3.46l-18.18-57.15,124-124a12.75,12.75,0,0,1,3.07,13.12L420.6,145.22,456.45,193A12.82,12.82,0,0,1,445.95,213.51Z"/></g><path class="cls-4" d="M434.87,142.92l16.57-50a25.6,25.6,0,0,0-32.35-32.35l-50,16.57L326.66,45.32a25.6,25.6,0,0,0-41,21l1.12,52.2-42.54,29.9a25.6,25.6,0,0,0,7,45.34l9.62,3.06L11.22,446.46a38.46,38.46,0,0,0,0,54.31h0a38.45,38.45,0,0,0,54.31,0L315.15,251.15l3.06,9.62a25.45,25.45,0,0,0,20.51,17.54,26.06,26.06,0,0,0,4,.3,25.43,25.43,0,0,0,20.88-10.89l29.9-42.54,52.2,1.12a25.6,25.6,0,0,0,21-41ZM47.44,482.67a12.8,12.8,0,1,1-18.11-18.1l259-259,1.8.57,15.74,15.74.57,1.79ZM387.18,199.44a12.81,12.81,0,0,0-10.75,5.44L342.61,253,324.41,195.9a12.81,12.81,0,0,0-8.31-8.31L259,169.39l48.12-33.82a12.8,12.8,0,0,0,5.44-10.75l-1.27-59,47.77,35.83a12.79,12.79,0,0,0,11.71,1.91l56.39-18.77,0,.08-18.68,56.36a12.81,12.81,0,0,0,1.91,11.71l35.84,47.78Z"/><circle class="cls-4" cx="486.4" cy="121.6" r="12.8"/><circle class="cls-4" cx="492.8" cy="19.2" r="19.2"/><circle class="cls-4" cx="364.79" cy="12.8" r="12.8"/><circle class="cls-4" cx="422.4" cy="281.61" r="19.2"/><circle class="cls-4" cx="223.99" cy="89.6" r="12.8"/></svg>