<svg id="Layer_1" data-name="Layer 1" xmlns="http://www.w3.org/2000/svg" viewBox="0 0 512 512"><defs><style>.cls-1{fill:#727272;}</style></defs><title>magic-wand-handdrawn</title><path class="cls-1" d="M459.4,191l-2.79-3.73-11.09-14.85-11-14.86L429,150.13l-2.72-3.72c-.31-.42-.34-.48-.32-.45l0-.07,0-.12.09-.15s0,0,.06-.12l.46-1.31,1.84-5.21,3.7-10.38,1.79-5.51c5.88-18.62,8.08-32.4,5.17-31.7a19.11,19.11,0,0,0,.76-3.12,15.47,15.47,0,0,0-.93-7.89,16,16,0,0,0-12-9.8,16.2,16.2,0,0,0-8,.64l-6.28,2L364.29,88.59l-6.2-4.73-27.52-21-6.86-5.27L320.29,55a43.28,43.28,0,0,0-4-2.84,17.5,17.5,0,0,0-21.47,3.2A17.1,17.1,0,0,0,290.16,66c-.17,2.22,0,3.16-.06,4.75l0,4.32.18,17.3q.22,15.88.44,31.79l-21.47,15.13-23.71,17.09c-3.76,2.27-7.72,7.66-8.3,12.68a18.36,18.36,0,0,0,2.86,13.06,17.7,17.7,0,0,0,4.94,5,24.38,24.38,0,0,0,5.76,2.68l18.45,6.4,1.35.45-2.08,1.74-10.82,9.45c-7.55,6.76-15.75,14.41-24.41,22.81-11.54,11.2-23.18,22.85-34.7,34.37L87.38,376.2,31.76,431.82,17.85,445.73l-7,7A46.14,46.14,0,0,0,7,457a34,34,0,0,0-3.4,5.37,33.26,33.26,0,0,0,13.48,44l0,0a33.42,33.42,0,0,0,37.18-3.12c2.75-2.34,4.28-4,6.11-5.83l5.4-5.41L76.52,481.3l43.24-43.24,86.5-86.47,74.28-74q11.87-11.78,22.16-22.67l11.52-12.47L318.87,257l1.41,4.42a20.69,20.69,0,0,0,3.27,6.24,19.62,19.62,0,0,0,12,7.31,19.55,19.55,0,0,0,19.17-7c.86-1,1.21-1.59,1.65-2.22l1.33-1.9,10.67-15.13,10.71-15,5.37-7.48,2.69-3.73c.52-.71.27-.31.43-.5l.16,0,.07,0,1.29.05,5.45.22,10.86.48,5.79.09c5.85,0,11.18-.1,15.75-.39l12.35.25,2.32,0c.76,0,1.45.05,2.79,0a19.54,19.54,0,0,0,17-11.38,19.65,19.65,0,0,0,1.12-14A20.57,20.57,0,0,0,459.4,191ZM442.26,208.2,430.61,208,380,206.87l-23.6,33.57-10.64,15.14-1.33,1.89a12.86,12.86,0,0,1-1.05,1.41,2.74,2.74,0,0,1-.26.32l-.14.15a8.75,8.75,0,0,1-.87.7,6.15,6.15,0,0,1-.72.36,6.27,6.27,0,0,1-1,.3l-.34.06h0a5.88,5.88,0,0,1-2.07-.14l-.46-.13-.37-.14a5.16,5.16,0,0,1-.67-.33,5.5,5.5,0,0,1-.88-.69l-.06-.07a5.85,5.85,0,0,1-.65-.78l-.05-.07-.14-.24c-.09-.16-.17-.32-.25-.51s-.09-.21-.13-.32l0-.11,0-.12-.14-.4-.19-.61c-.13-.43-.27-.88-.39-1.22l-3.51-11-15.24-47.91-22.92-7.29v0l-30.47-9.71-7.62-2.43a5,5,0,0,1-2.75-1.84,5.37,5.37,0,0,1-.24-6.14,4.1,4.1,0,0,1,1.12-1.19,11.11,11.11,0,0,1,1.24-.93l1.64-1.15,6.54-4.6,13.08-9.19,29.47-20.72L303.32,106h0l-.24-10.87L303,89l-.4-18.83c-.05-1.67-.07-2.66,0-3.35v0a5.3,5.3,0,0,1,.3-1.46c.08-.19.17-.39.27-.62h0a4.92,4.92,0,0,1,1.91-2l.36-.19.34-.17a6,6,0,0,1,.58-.21l.36-.09L307,62a5.27,5.27,0,0,1,2.56.23c.26.19.57.2.83.43a13.44,13.44,0,0,1,1.2.82l3.64,2.74,14.57,11,32.35,24.4,17.33-5.69c7.26-2.37,14.16-4.74,20.74-7.11l1.66-.55,18-6c3.76-1.29,4-1.32,5.44-1.14a5.5,5.5,0,0,1,3.22,2,5.2,5.2,0,0,1,1.1,3.43,4.86,4.86,0,0,1-.13.92c-.05.26-.17.6-.45,1.46l-1.43,4.29-5.72,17.14L409.07,148.5l11.28,15.15Q428,173.94,435.22,183q4.72,6.33,9.45,12.63l1.75,2.33.87,1.17.43.58.16.28a4.56,4.56,0,0,1,.86,2.2,5.44,5.44,0,0,1-1.49,4.46,4.59,4.59,0,0,1-2,1.25,5.73,5.73,0,0,1-1.15.29C443.72,208.16,443.46,208.26,442.26,208.2ZM294,252l-69.49,67.15c-33.06,32.18-66.25,64.33-99.15,97L83.19,457.62,62.07,478.28,51.52,488.62c-3.75,3.79-6.3,6.28-10.11,7.78A20.57,20.57,0,0,1,14,470.89a19.36,19.36,0,0,1,2.63-5.2A34.33,34.33,0,0,1,21,460.87l10.45-10.55,20.81-21.27c3.07-3.16,6.68-6.56,9.88-9.55,71.55-66.59,141.74-140.94,213-209.27l4.91-5,3.18-3.3a.63.63,0,0,1,0-.21c-1.68-.73,5.19,1.17,8.44,1.85l.15,0,11.43,3.82,8.71,27.69Z"/><path class="cls-1" d="M483.89,109.58a14.23,14.23,0,0,0-9.5,4.26c-2.33,2.33-2.73,5.94-2.73,9.5s2,5.55,4.35,7.88,4.33,4.09,7.88,4.09,7.85.54,10.18-1.8a15.77,15.77,0,0,0,4.05-10.18c0-3.56-2.31-7.27-4.64-9.6A14.38,14.38,0,0,0,483.89,109.58Z"/><path class="cls-1" d="M509.07,9.52c-1.7-2.93-5.77-4.87-8.7-6.57s-6.52-1-10-1-7.71-1.51-10.55.14a23.07,23.07,0,0,0-7.72,7.72,22.61,22.61,0,0,0-2.45,10.55c0,3.52,2.94,6.48,4.58,9.32s2.49,7.54,5.42,9.24,7.2-1.06,10.71-1.06,6.23-.14,9.07-1.79,8.18-1.84,9.87-4.77A24.4,24.4,0,0,0,512,20.34,24.09,24.09,0,0,0,509.07,9.52Z"/><path class="cls-1" d="M361.59,25.16c3.56,0,6-.57,8.36-2.9s6.15-4.8,6.15-8.36-3.87-6-6.2-8.3a11,11,0,0,0-8.3-3.7,11.55,11.55,0,0,0-8.71,3.29c-2.33,2.33-2.78,5.16-2.78,8.71s-.41,7.24,1.92,9.57S358,25.16,361.59,25.16Z"/><path class="cls-1" d="M436.75,274.32c-1.7-2.93-4.63-5.11-7.56-6.8a18.19,18.19,0,0,0-19.4-.11c-2.93,1.7-3.3,5.42-5,8.35s-5.51,5-5.51,8.5.62,7.54,2.26,10.38,5.79,4,8.72,5.66,5.74,4.47,9.26,4.47,8.09.08,10.93-1.57,2.72-7.14,4.41-10.07,1.33-5.34,1.33-8.86S438.39,277.16,436.75,274.32Z"/><path class="cls-1" d="M220,104.14a13.43,13.43,0,0,0,9.42-3.58c2.33-2.33,2.05-5.86,2.05-9.42s.91-7.71-1.42-10-6.49-1.38-10-1.38a10.07,10.07,0,0,0-8,3.45c-2.33,2.33-3.78,4.41-3.78,8s.37,6.71,2.7,9A12.85,12.85,0,0,0,220,104.14Z"/></svg>