<svg id="Layer_1" data-name="Layer 1" xmlns="http://www.w3.org/2000/svg" viewBox="0 0 512 512"><defs><style>.cls-1{fill:#757889;}.cls-2{opacity:0.2;}.cls-3{fill:#fff;}.cls-4{fill:#ffb85a;}.cls-5{fill:#2b374f;}</style></defs><title>church-tower-filled</title><rect class="cls-1" x="38.4" y="441.6" width="435.2" height="57.6"/><g class="cls-2"><path class="cls-3" d="M70.4,441.6v57.6h-32V441.6Z"/></g><g class="cls-2"><path d="M473.6,441.6v57.6h-32V441.6Z"/></g><polygon class="cls-1" points="499.2 441.6 12.8 441.6 51.2 371.2 460.8 371.2 499.2 441.6"/><g class="cls-2"><polygon class="cls-3" points="51.2 371.2 12.8 441.6 51.2 441.6 89.6 371.2 51.2 371.2"/></g><g class="cls-2"><polygon points="460.8 371.2 499.2 441.6 460.8 441.6 422.4 371.2 460.8 371.2"/></g><polygon class="cls-1" points="377.6 371.2 134.4 371.2 134.4 166.4 256 108.8 377.6 166.4 377.6 371.2"/><g class="cls-2"><polygon points="345.6 151.24 345.6 371.2 377.6 371.2 377.6 166.4 345.6 151.24"/></g><g class="cls-2"><polygon class="cls-3" points="166.4 151.24 134.4 166.4 134.4 371.2 166.4 371.2 166.4 151.24"/></g><path class="cls-4" d="M256,185.6h0a51.2,51.2,0,0,0-51.2,51.2V371.2H307.2V236.8A51.2,51.2,0,0,0,256,185.6Z"/><path class="cls-5" d="M510.44,435.47,472,365.07a12.8,12.8,0,0,0-11.24-6.67H390.4V186.63l35.76,16.94a12.81,12.81,0,0,0,17-6.09,12.81,12.81,0,0,0-6.09-17.05l-54-25.59h0L268.8,100.7V57.6H288A12.8,12.8,0,1,0,288,32H268.8V12.8a12.8,12.8,0,0,0-25.6,0V32H224a12.8,12.8,0,1,0,0,25.6h19.2v43.1L128.92,154.83h0l-54,25.6a12.8,12.8,0,1,0,11,23.14l35.77-16.94V358.4H51.2A12.8,12.8,0,0,0,40,365.07l-38.4,70.4A12.8,12.8,0,0,0,12.8,454.4H25.6v44.8A12.8,12.8,0,0,0,38.4,512H473.6a12.8,12.8,0,0,0,12.8-12.8V454.4h12.8a12.8,12.8,0,0,0,11.24-18.93ZM147.2,174.5,256,123,364.8,174.5V358.4H320V236.8a64,64,0,0,0-128,0V358.4H147.2Zm70.4,183.9v-32h25.6v32Zm76.8-121.6v6.4H268.8V200.6A38.46,38.46,0,0,1,294.4,236.8Zm-76.8,32h25.6v32H217.6Zm51.2,0h25.6v32H268.8Zm-25.6-25.6H217.6v-6.4a38.46,38.46,0,0,1,25.6-36.2Zm25.6,83.2h25.6v32H268.8ZM58.8,384H453.2l24.44,44.8H34.36Zm402,102.4H51.2v-32H460.8Z"/></svg>