<svg id="Layer_1" data-name="Layer 1" xmlns="http://www.w3.org/2000/svg" viewBox="0 0 512 512"><defs><style>.cls-1{fill:#e4e6ea;}.cls-2{opacity:0.12;}.cls-3{fill:#231f20;}.cls-4{opacity:0.6;}.cls-5{fill:#fff;}.cls-6{fill:#757889;}.cls-7{opacity:0.3;}.cls-8{opacity:0.2;}.cls-9{fill:#2b374f;}</style></defs><title>grave-filled</title><path class="cls-1" d="M441.6,198.4V409.6H70.4V198.4a185.6,185.6,0,0,1,371.2,0Z"/><g class="cls-2"><path class="cls-3" d="M441.6,198.4V409.6H390.4V197.25c0-73.73-33.92-138.88-85.7-178A185.58,185.58,0,0,1,441.6,198.4Z"/></g><g class="cls-4"><path class="cls-5" d="M207.3,19.26c-51.78,39.1-85.7,104.26-85.7,178V409.6H70.4V198.4A185.58,185.58,0,0,1,207.3,19.26Z"/></g><rect class="cls-6" x="12.8" y="409.6" width="486.4" height="89.6" rx="25.6" ry="25.6"/><g class="cls-7"><path class="cls-5" d="M64,409.6v89.6H38.4a25.59,25.59,0,0,1-25.6-25.6V435.2a25.59,25.59,0,0,1,25.6-25.6Z"/></g><g class="cls-8"><path d="M499.2,435.2v38.4a25.59,25.59,0,0,1-25.6,25.6H448V409.6h25.6A25.59,25.59,0,0,1,499.2,435.2Z"/></g><path class="cls-9" d="M221,276l-17.6-18.59q9.61-1.74,15.17-8.42t5.55-16.54a29,29,0,0,0-2.12-11.3,25,25,0,0,0-6-8.68,27.06,27.06,0,0,0-9.36-5.62,35.62,35.62,0,0,0-12.23-2H170.11a10.57,10.57,0,0,0-7.05,2.6,9.22,9.22,0,0,0-3.06,7.43V283q0,5.33,2.87,8a11.15,11.15,0,0,0,14.48,0q2.87-2.69,2.87-8.05V257.36l.25.3,24.85,31.07a18.1,18.1,0,0,0,3.74,3.65q1.87,1.3,5.87,1.3a10.45,10.45,0,0,0,4.87-1,10.67,10.67,0,0,0,3.25-2.51,9,9,0,0,0,1.75-3,8.75,8.75,0,0,0,.5-2.63,9.11,9.11,0,0,0-1.06-4.4A19.74,19.74,0,0,0,221,276Zm-27.46-32.83H180.22v-19.6h13.36a11,11,0,0,1,7.36,2.56,8.78,8.78,0,0,1,3,7.05,10,10,0,0,1-2.69,7.11Q198.58,243.13,193.58,243.12Z"/><path class="cls-9" d="M342.64,212.35a27.93,27.93,0,0,0-9.74-5.68,35,35,0,0,0-11.36-1.87H296.7a10.57,10.57,0,0,0-7.05,2.6,9.22,9.22,0,0,0-3.06,7.43V283q0,5.33,2.87,8a10.22,10.22,0,0,0,7.24,2.66,10.35,10.35,0,0,0,7.24-2.61q2.87-2.62,2.87-7.85V265.1h15.35a34,34,0,0,0,12.8-2.25,26,26,0,0,0,9.36-6.3,26.78,26.78,0,0,0,5.74-9.55A35.81,35.81,0,0,0,352,235a31.82,31.82,0,0,0-2.56-13.17A28,28,0,0,0,342.64,212.35Zm-12.48,27.22a11.46,11.46,0,0,1-2.56,3.87,12.3,12.3,0,0,1-4.18,2.69,15.4,15.4,0,0,1-5.74,1H306.81V222.78h10.86a14.45,14.45,0,0,1,9.67,3.12Q331,229,331,235A12.18,12.18,0,0,1,330.15,239.57Z"/><path class="cls-9" d="M254.25,204.8a10.28,10.28,0,0,0-7.24,2.64q-2.88,2.64-2.87,7.92v67.77q0,5.28,2.87,7.92a11.25,11.25,0,0,0,14.48,0q2.87-2.64,2.87-7.92V215.36q0-5.28-2.87-7.92A10.28,10.28,0,0,0,254.25,204.8Z"/><path class="cls-9" d="M473.6,396.8H454.4V198.4C454.4,89,365.4,0,256,0S57.6,89,57.6,198.4V396.8H38.4A38.44,38.44,0,0,0,0,435.2v38.4A38.44,38.44,0,0,0,38.4,512H473.6A38.44,38.44,0,0,0,512,473.6V435.2A38.44,38.44,0,0,0,473.6,396.8ZM83.2,198.4c0-95.28,77.52-172.8,172.8-172.8s172.8,77.52,172.8,172.8V396.8H83.2ZM486.4,473.6a12.81,12.81,0,0,1-12.8,12.8H38.4a12.81,12.81,0,0,1-12.8-12.8V435.2a12.81,12.81,0,0,1,12.8-12.8H473.6a12.81,12.81,0,0,1,12.8,12.8Z"/></svg>