<svg id="Layer_1" data-name="Layer 1" xmlns="http://www.w3.org/2000/svg" viewBox="0 0 512 512"><defs><style>.cls-1{fill:#e4e6ea;}.cls-2{opacity:0.6;}.cls-3{fill:#fff;}.cls-4{opacity:0.12;}.cls-5{fill:#f2496d;}.cls-6{fill:#757889;}.cls-7{fill:#2b374f;}</style></defs><title>skull-filled</title><path class="cls-1" d="M473.6,339.2c0,43.71-30.85,82.94-73.41,93.25l-9.79,2.37V467.2c0,9.47-17.28,18-44.8,23.81-23.74,5.12-55.17,8.19-89.6,8.19s-65.86-3.07-89.6-8.19c-27.52-5.82-44.8-14.34-44.8-23.81V434.82l-9.79-2.37C69.25,422.14,38.4,382.91,38.4,339.2A96.64,96.64,0,0,1,56.58,283l3.58-5-1.6-5.89A205.91,205.91,0,0,1,51.2,217.6C51.2,124.74,113.28,46.27,198,21.18h.06a204.62,204.62,0,0,1,116.16.06C398.85,46.4,460.8,124.86,460.8,217.6a205.91,205.91,0,0,1-7.36,54.53l-1.6,5.89,3.58,5A96.64,96.64,0,0,1,473.6,339.2Z"/><g class="cls-2"><path class="cls-3" d="M102.4,214.72a249.93,249.93,0,0,0,7.81,62.21A123.49,123.49,0,0,0,89.6,345.47c0,51.71,32,96.7,76.8,111.55v34c-27.52-5.82-44.8-14.34-44.8-23.81V434.82l-9.79-2.37C69.25,422.14,38.4,382.91,38.4,339.2A96.64,96.64,0,0,1,56.58,283l3.58-5-1.6-5.89A205.91,205.91,0,0,1,51.2,217.6C51.2,124.74,113.28,46.27,198,21.18,140.35,63.3,102.4,134.34,102.4,214.72Z"/></g><g class="cls-4"><path d="M473.6,339.2c0,43.71-30.85,82.94-73.41,93.25l-9.79,2.37V467.2c0,9.47-17.28,18-44.8,23.81V457.09c44.93-14.72,77-59.78,77-111.62A123.44,123.44,0,0,0,402,276.93a249.88,249.88,0,0,0,7.74-62.21c0-80.38-37.89-151.36-95.55-193.47C398.85,46.4,460.8,124.86,460.8,217.6a205.91,205.91,0,0,1-7.36,54.53l-1.6,5.89,3.58,5A96.64,96.64,0,0,1,473.6,339.2Z"/></g><circle class="cls-5" cx="179.2" cy="256" r="44.8"/><circle class="cls-5" cx="332.8" cy="256" r="44.8"/><path class="cls-6" d="M256,364.83a12.83,12.83,0,1,0,25.66,0,11.77,11.77,0,0,0-.38-3,7.23,7.23,0,0,0-.64-2l-.51-1.09-14-26.27a11.46,11.46,0,0,0-20.23,0l-14,26.27-.51,1.09a7.22,7.22,0,0,0-.64,2,11.76,11.76,0,0,0-.38,3,12.83,12.83,0,1,0,25.66,0Z"/><path class="cls-7" d="M236.8,256a57.6,57.6,0,1,0-57.6,57.6A57.67,57.67,0,0,0,236.8,256Zm-57.6,32a32,32,0,1,1,32-32A32,32,0,0,1,179.2,288Z"/><path class="cls-7" d="M332.8,198.4A57.6,57.6,0,1,0,390.4,256,57.67,57.67,0,0,0,332.8,198.4Zm0,89.6a32,32,0,1,1,32-32A32,32,0,0,1,332.8,288Z"/><path class="cls-7" d="M292.22,354.38l-14.81-27.94a24.27,24.27,0,0,0-42.82,0l-14,26.27-.68,1.41a20.07,20.07,0,0,0-1.67,4.87,24.48,24.48,0,0,0-.69,5.84A25.62,25.62,0,0,0,256,387a25.62,25.62,0,0,0,38.46-22.18,24.5,24.5,0,0,0-.69-5.84A19.28,19.28,0,0,0,292.22,354.38Zm-49,10.45v.28h-.11l.08-.32L256,340.7l12.69,23.79.11.32v0Z"/><path class="cls-7" d="M465.81,275.49a218,218,0,0,0,7.79-57.89C473.6,97.62,376,0,256,0S38.4,97.62,38.4,217.6a218,218,0,0,0,7.79,57.89A108.73,108.73,0,0,0,108.8,444.86V467.2c0,21.46,32.09,32.64,66.44,38.47a12.77,12.77,0,0,0,3.8.62,485.74,485.74,0,0,0,49,4.9,12.83,12.83,0,0,0,2.37.23c.37,0,.73,0,1.09-.06,12.1.57,21.17.63,24.51.63s12.41-.06,24.51-.63c.36,0,.72.06,1.09.06a12.83,12.83,0,0,0,2.37-.23,485.74,485.74,0,0,0,49-4.9,12.77,12.77,0,0,0,3.8-.62c34.35-5.83,66.44-17,66.44-38.47V444.86a108.73,108.73,0,0,0,62.61-169.37Zm-77.1,146.07L377.6,423v42.72c-3.12,3.43-13.91,8.16-32,12.23V441.6a12.8,12.8,0,1,0-25.6,0v40.89c-7.78,1-16.32,1.93-25.6,2.59V460.8a12.8,12.8,0,1,0-25.6,0v25.46q-6.23.14-12.8.14t-12.8-.14V460.8a12.8,12.8,0,1,0-25.6,0v24.28c-9.28-.66-17.82-1.55-25.6-2.59V441.6a12.8,12.8,0,1,0-25.6,0V478c-18.09-4.07-28.88-8.8-32-12.23V423l-11.11-1.48A83.13,83.13,0,0,1,70.18,286.3L74.57,281l-2-6.6A192,192,0,0,1,64,217.6c0-105.87,86.13-192,192-192s192,86.13,192,192a192,192,0,0,1-8.54,56.78l-2,6.6,4.39,5.33a83.13,83.13,0,0,1-53.11,135.27Z"/></svg>