<svg id="Layer_1" data-name="Layer 1" xmlns="http://www.w3.org/2000/svg" viewBox="0 0 512 512"><defs><style>.cls-1{fill:#ffb85a;}.cls-2{fill:#e4e6ea;}.cls-3{opacity:0.2;}.cls-4{fill:#2b374f;}</style></defs><title>scythe-filled</title><path class="cls-1" d="M20.13,450.8h0a25.42,25.42,0,0,1,0-35.95L377.42,57.57a25.42,25.42,0,0,1,35.95,0h0a25.42,25.42,0,0,1,0,35.95L56.08,450.8A25.42,25.42,0,0,1,20.13,450.8Z"/><path class="cls-2" d="M395.4,129.46,342.89,77a2,2,0,0,0-2.83,0L280,137a2,2,0,0,0,0,2.83l52.51,52.51,9,9c158.81,158.34,80.79,260.52,80.79,260.52C578.41,313.4,459.25,192.92,395.4,129.46Z"/><g class="cls-3"><path d="M363.93,160.93l-9-9L310,107l-22.45,22.45a12.71,12.71,0,0,0,0,18l44.93,44.93,9,9c158.81,158.34,80.79,260.52,80.79,260.52A355.26,355.26,0,0,0,448.71,434C464.35,375,470.79,267.46,363.93,160.93Z"/></g><path class="cls-4" d="M404.43,120.53l0,0,18-18a38.13,38.13,0,0,0-53.93-53.92L347.88,69.14c-8.49-2.09-18,0-24.38,6.4l-44.94,44.94A25.43,25.43,0,0,0,272,145L11.15,405.87a38.13,38.13,0,1,0,53.92,53.92L323.5,201.36l9,9h0C480.63,358,415,450.37,412.16,454.16A12.71,12.71,0,0,0,431,471.08c53.14-50.53,80.39-103.17,81-156.47C512.94,228.39,445.06,160.89,404.43,120.53Zm-18-54a13,13,0,0,1,18,0,12.73,12.73,0,0,1,0,18l-18,18-18-18Zm-44.93,27,35.95,35.95-.86.86-44.07,44.07-35.95-35.95ZM47.1,441.82a12.71,12.71,0,1,1-18-18L287.56,165.41l18,18ZM350.46,192.37l22.75-22.75,22.19-22.19c38,38.15,91.94,97.09,91.17,166.91-.34,30.69-11.31,61.54-32.72,92.17C458.25,358,442.2,283.83,350.46,192.37Z"/></svg>