<svg id="Layer_1" data-name="Layer 1" xmlns="http://www.w3.org/2000/svg" viewBox="0 0 512 512"><defs><style>.cls-1{fill:#e4e6ea;}.cls-2{opacity:0.6;}.cls-3{fill:#fff;}.cls-4{opacity:0.12;}.cls-5{fill:#757889;}.cls-6{fill:#2b374f;}</style></defs><title>coffin-filled</title><path class="cls-1" d="M439.3,186.82,375.42,474.24a31.49,31.49,0,0,1-30.59,25H231.17a31.49,31.49,0,0,1-30.59-25L136.7,186.82a97.87,97.87,0,0,1,2.94-52.74l34-99.78a31.51,31.51,0,0,1,29.63-21.5H372.74a31.51,31.51,0,0,1,29.63,21.5l34,99.78A97.87,97.87,0,0,1,439.3,186.82Z"/><g class="cls-2"><path class="cls-3" d="M252,477.06a45.13,45.13,0,0,0,12.16,22.14h-33a31.49,31.49,0,0,1-30.59-25L136.7,186.82a97.87,97.87,0,0,1,2.94-52.74l34-99.78a31.51,31.51,0,0,1,29.63-21.5h33.09a45.31,45.31,0,0,0-10.82,17.34l-34,99.78a110.56,110.56,0,0,0-3.26,59.65Z"/></g><g class="cls-2"><path class="cls-3" d="M295.17,512H280.83a43.93,43.93,0,0,0,7.17-.58A43.93,43.93,0,0,0,295.17,512Z"/></g><g class="cls-4"><path d="M295.17,512H280.83a43.93,43.93,0,0,0,7.17-.58A43.93,43.93,0,0,0,295.17,512Z"/></g><g class="cls-4"><path d="M439.3,186.82,375.42,474.24a31.49,31.49,0,0,1-30.59,25h-33A45.13,45.13,0,0,0,324,477.06l63.81-287.49a110.56,110.56,0,0,0-3.26-59.65l-34-99.78A45.31,45.31,0,0,0,339.65,12.8h33.09a31.51,31.51,0,0,1,29.63,21.5l34,99.78A97.87,97.87,0,0,1,439.3,186.82Z"/></g><path class="cls-1" d="M251.73,448a6.4,6.4,0,0,1-6.25-5l-58.8-267.49A46.09,46.09,0,0,1,188,150.86l27.87-82.51A6.4,6.4,0,0,1,222,64H354a6.4,6.4,0,0,1,6.06,4.35L388,150.87a46.11,46.11,0,0,1,1.34,24.62L330.52,443a6.4,6.4,0,0,1-6.25,5Z"/><path class="cls-5" d="M200.55,474.27,136.72,186.79a97.82,97.82,0,0,1,2.9-52.74l34-99.77A31.43,31.43,0,0,1,203.29,12.8h-63.2a31.76,31.76,0,0,0-30,21.49L75.69,134.05a96.75,96.75,0,0,0-2.93,52.74l64.56,287.47a31.8,31.8,0,0,0,31,24.93h62.88A31.52,31.52,0,0,1,200.55,474.27Z"/><path class="cls-6" d="M448.49,129.92l-34-99.77A44.24,44.24,0,0,0,372.71,0H140.08A44.58,44.58,0,0,0,98,30.11L63.59,129.88a109.47,109.47,0,0,0-3.32,59.72l64.56,287.47A44.36,44.36,0,0,0,168.27,512H344.85A44.07,44.07,0,0,0,388,477l63.82-287.47A110.51,110.51,0,0,0,448.49,129.92ZM168.27,486.4a18.9,18.9,0,0,1-18.47-14.94L85.24,184a83.9,83.9,0,0,1,2.55-45.76l34.42-99.77A19,19,0,0,1,140.08,25.6h23.29c-.08.16-.14.34-.22.5q-.29.65-.57,1.31l-.3.74c-.26.66-.51,1.33-.74,2l-34,99.77a110.51,110.51,0,0,0-3.28,59.64L188.05,477c.17.75.36,1.49.56,2.22.06.22.13.44.19.66q.22.77.47,1.53l.25.75c.17.5.36,1,.54,1.48.08.21.16.43.25.64q.41,1,.86,2l0,.1ZM426.78,184,363,471.49a18.64,18.64,0,0,1-18.11,14.91H231.15A18.64,18.64,0,0,1,213,471.49L149.22,184a85,85,0,0,1,2.52-45.83l34-99.77A18.66,18.66,0,0,1,203.29,25.6H372.71a18.66,18.66,0,0,1,17.53,12.82l34,99.77A85,85,0,0,1,426.78,184Z"/><path class="cls-6" d="M372.24,64.25A19.19,19.19,0,0,0,354.05,51.2H222a19.19,19.19,0,0,0-18.19,13.06l-27.87,82.5a58.83,58.83,0,0,0-1.72,31.47L233,445.72a19.31,19.31,0,0,0,18.75,15.08h72.54A19.31,19.31,0,0,0,343,445.72l58.81-267.49a58.86,58.86,0,0,0-1.72-31.45Zm4.59,108.49L319.13,435.2H256.88l-57.7-262.47a33.25,33.25,0,0,1,1-17.78l26.4-78.16H349.46L375.86,155A33.33,33.33,0,0,1,376.83,172.74Z"/><path class="cls-6" d="M326.4,153.6H300.8V128a12.8,12.8,0,0,0-25.6,0v25.6H249.6a12.8,12.8,0,1,0,0,25.6h25.6V256a12.8,12.8,0,0,0,25.6,0V179.2h25.6a12.8,12.8,0,1,0,0-25.6Z"/></svg>