<svg id="Layer_1" data-name="Layer 1" xmlns="http://www.w3.org/2000/svg" viewBox="0 0 512 512"><defs><style>.cls-1{fill:#ffb85a;}.cls-2{opacity:0.3;}.cls-3{fill:#fff;}.cls-4{opacity:0.12;}.cls-5{fill:#e4e6ea;}.cls-6{fill:#2b374f;}</style></defs><title>broom-filled</title><path class="cls-1" d="M317.56,266.9l-30.7,30.7c-10.19,73.64-56.53,120-56.53,120l-81.59,81.52-13.59-13.59,9.74-36.92,12.95-49.16-54.41,54.35L12.82,363.23,94.4,281.64s46.34-46.27,120-56.53l30.7-30.7a36.79,36.79,0,0,1,52.1,0l20.38,20.38A36.79,36.79,0,0,1,317.56,266.9Z"/><g class="cls-2"><path class="cls-3" d="M297.18,194.42a36.79,36.79,0,0,0-52.1,0l-30.7,30.7c-73.64,10.25-120,56.53-120,56.53L12.82,363.23,40,390.4l73.64-73.64c2-2,48.52-47.68,123-59.54l61.72-61.65Z"/></g><g class="cls-4"><path d="M317.56,214.8l-1.09-1.09-61.72,61.65c-11.86,74.54-57.55,121-59.54,123l-50.31,50.31-9.74,36.92,13.59,13.59,81.59-81.52s46.34-46.4,56.53-120l30.7-30.7A36.79,36.79,0,0,0,317.56,214.8Z"/></g><path class="cls-5" d="M297.19,194.42l20.39,20.39a36.79,36.79,0,0,1,6.69,9.17L491.69,56.56a25.64,25.64,0,1,0-36.25-36.25L288,187.73A36.8,36.8,0,0,1,297.19,194.42Z"/><path class="cls-6" d="M500.76,11.24a38.5,38.5,0,0,0-54.38,0L284.88,172.74a49.89,49.89,0,0,0-13.75-1.93A49.32,49.32,0,0,0,236,185.36l-14.73,14.73-4.53-4.53a12.82,12.82,0,1,0-18.13,18.13l1,1c-69.38,13.83-112.34,56.06-114.25,58L3.76,354.17a12.81,12.81,0,0,0,0,18.13l90.63,90.64a12.81,12.81,0,0,0,18.13,0l20.86-20.86-10.6,40.26a12.82,12.82,0,0,0,3.34,12.32l13.59,13.59a12.81,12.81,0,0,0,18.13,0l81.58-81.57c1.9-1.9,44.13-44.86,58-114.24l1,1a12.82,12.82,0,0,0,18.13-18.13l-4.53-4.53L326.64,276a49.34,49.34,0,0,0,14.55-35.12,49.86,49.86,0,0,0-1.93-13.75l161.5-161.5A38.51,38.51,0,0,0,500.76,11.24ZM274.2,295.86c-9.49,68.2-52.5,112.27-52.91,112.69L149.93,479.9l20.3-77.15a12.82,12.82,0,0,0-21.46-12.32l-45.32,45.32L30.94,363.23l72.5-72.5c.44-.43,44.11-43.38,112.7-52.91a12.81,12.81,0,0,0,4.88-1.74L275.93,291A12.79,12.79,0,0,0,274.2,295.86Zm34.32-38-14.73,14.73-54.38-54.38,14.73-14.73c8.49-8.49,22.87-9,32.13-1.65l.14.11a22.23,22.23,0,0,1,1.72,1.55l20.39,20.4.1.11q.53.54,1,1.1l.24.28a24.27,24.27,0,0,1,3,4.51l.27.52a24,24,0,0,1-4.64,27.47ZM482.63,47.5,325.52,204.62l-12.25-12.24-5.88-5.89L464.5,29.37A12.82,12.82,0,1,1,482.63,47.5Z"/></svg>