<svg id="Layer_1" data-name="Layer 1" xmlns="http://www.w3.org/2000/svg" viewBox="0 0 512 512"><defs><style>.cls-1{fill:#757889;}.cls-2{opacity:0.2;}.cls-3{opacity:0.3;}.cls-4{fill:#fff;}.cls-5{fill:#e85b76;}.cls-6{fill:#2b374f;}</style></defs><title>spider-filled</title><path class="cls-1" d="M263.23,415.49A54.18,54.18,0,0,1,256,416a50.44,50.44,0,0,1-9.41-.83,55,55,0,0,1-45-62.46l7.55-49.86c1.34,1.09,2.62,2.24,4,3.26a68.9,68.9,0,0,0,85.76,0c1.34-1,2.62-2.18,4-3.26l7.55,49.86A55,55,0,0,1,263.23,415.49Z"/><g class="cls-2"><path d="M310.4,352.7l-7.55-49.86c-1.34,1.09-2.62,2.24-4,3.26a69.07,69.07,0,0,1-26.75,13.06l3.58,30.78c2.69,23.23-1.86,46.78-12.48,65.54A55,55,0,0,0,310.4,352.7Z"/></g><g class="cls-3"><path class="cls-4" d="M236.29,349.69l3.33-30.59a68.8,68.8,0,0,1-26.5-13c-1.34-1-2.62-2.18-4-3.26L201.6,352.7a55,55,0,0,0,45,62.46C237.5,396,233.79,372.67,236.29,349.69Z"/></g><path class="cls-1" d="M384,139.52c0,82.69-47.94,137-85.12,166.59a67.55,67.55,0,0,1-35.33,14.46.06.06,0,0,0-.06.06,65.11,65.11,0,0,1-15,0,.06.06,0,0,0-.06-.06,67.55,67.55,0,0,1-35.33-14.46C175.94,276.48,128,222.21,128,139.52c0-58.69,40.32-108.1,95.1-122.5a130.21,130.21,0,0,1,65.79,0C343.68,31.42,384,80.83,384,139.52Z"/><g class="cls-3"><path class="cls-4" d="M248.45,320.57a67.55,67.55,0,0,1-35.33-14.46C175.94,276.48,128,222.21,128,139.52c0-58.69,40.32-108.1,95.1-122.5-34.37,27.39-56.7,71.17-56.7,120.38C166.4,224.89,209.34,284.48,248.45,320.57Z"/></g><g class="cls-2"><path d="M384,139.52c0,82.69-47.94,137-85.12,166.59a67.55,67.55,0,0,1-35.33,14.46c39.1-36.1,82-95.68,82-183.17,0-49.22-22.34-93-56.7-120.38C343.68,31.42,384,80.83,384,139.52Z"/></g><polygon class="cls-5" points="300.8 108.8 211.2 108.8 246.04 153.6 211.2 198.4 300.8 198.4 265.95 153.6 300.8 108.8"/><path class="cls-6" d="M508.25,394.15l-57.6-57.6a12.81,12.81,0,0,0-5.68-3.3L359.59,310l90.6-15.76a12.8,12.8,0,0,0,7.37-4.11l51.2-57.6a12.8,12.8,0,0,0-19.14-17L441.4,269.75l-83,14.44,83.92-55.94a12.81,12.81,0,0,0,5.59-9l19.2-147.2a12.8,12.8,0,0,0-25.39-3.31L423.26,210.17l-55.51,37a209.34,209.34,0,0,0,29-107.65C396.8,62.59,333.64,0,256,0S115.2,62.59,115.2,139.53a209.34,209.34,0,0,0,29,107.65l-55.51-37L70.29,68.74a12.8,12.8,0,0,0-25.39,3.31l19.2,147.2a12.81,12.81,0,0,0,5.59,9l83.92,55.94-83-14.44L22.37,215.5a12.8,12.8,0,0,0-19.14,17l51.2,57.6a12.8,12.8,0,0,0,7.37,4.11L152.41,310,67,333.25a12.81,12.81,0,0,0-5.68,3.3l-57.6,57.6a12.8,12.8,0,1,0,18.1,18.1l55.2-55.2,96.56-26.33L112,401.17a12.8,12.8,0,0,0-3,6.62l-12.8,89.6A12.8,12.8,0,0,0,107,511.87a13,13,0,0,0,1.83.13,12.81,12.81,0,0,0,12.65-11l12.26-85.84,55-62.87a67.57,67.57,0,0,0,25,61.68,44.8,44.8,0,0,0-2.5,14.83,44.17,44.17,0,0,0,9,26.94,12.8,12.8,0,1,0,20.39-15.47,18.8,18.8,0,0,1-3.79-11.46,19.63,19.63,0,0,1,.2-2.73,67.51,67.51,0,0,0,38,0,19.63,19.63,0,0,1,.2,2.73,18.8,18.8,0,0,1-3.79,11.46,12.8,12.8,0,1,0,20.39,15.47,44.17,44.17,0,0,0,9-26.94A44.8,44.8,0,0,0,298.3,414a67.57,67.57,0,0,0,25-61.68l55,62.87L390.53,501a12.8,12.8,0,0,0,12.65,11,13,13,0,0,0,1.83-.13,12.8,12.8,0,0,0,10.86-14.48l-12.8-89.6a12.8,12.8,0,0,0-3-6.62l-61.65-70.45,96.56,26.33,55.2,55.2a12.8,12.8,0,0,0,18.1-18.1ZM256,25.6c63.52,0,115.2,51.11,115.2,113.93,0,71.47-38.09,120.56-73,150.52L293.52,294c-.87.73-1.75,1.47-2.61,2.15a54.94,54.94,0,0,1-12.22,7.37,56.53,56.53,0,0,1-57.6-7.37l-.46-.37L218.48,294l-4.72-3.92c-34.87-30-73-79-73-150.52C140.8,76.71,192.48,25.6,256,25.6ZM224,388.5a42.17,42.17,0,0,1-9.74-33.86l4.51-29.74.7.34.76.37q1.22.59,2.45,1.14l.36.16c.94.41,1.89.8,2.84,1.17l.68.26q1.17.45,2.35.85l.66.23q1.45.49,2.92.93l.44.13q1.26.37,2.53.69l.78.2c.92.22,1.84.44,2.76.63l.22,0c1,.2,2,.39,3,.55l.8.13q1.19.19,2.38.34l.71.09q1.48.18,3,.3l.68,0q1.19.09,2.38.15l.89,0c1,0,1.92.06,2.87.06h.27c.94,0,1.89,0,2.83-.06l.93,0q1.15-.05,2.3-.14l.76-.05q1.45-.12,2.9-.3l.84-.11q1.11-.14,2.22-.32l.93-.15c1-.16,1.92-.34,2.88-.53l.48-.11q1.24-.26,2.47-.57l.94-.24q1.15-.3,2.3-.63l.65-.18q1.41-.42,2.81-.89l.81-.28q1.09-.38,2.17-.79l.8-.31q1.4-.55,2.78-1.15l.46-.21q1.19-.53,2.36-1.09l.78-.38.69-.34,4.51,29.73A42.23,42.23,0,0,1,224,388.5Z"/><path class="cls-6" d="M211.2,211.2h89.6a12.8,12.8,0,0,0,10.11-20.66L282.17,153.6l28.73-36.94A12.8,12.8,0,0,0,300.8,96H211.2a12.8,12.8,0,0,0-10.11,20.66l28.73,36.94-28.73,36.94A12.8,12.8,0,0,0,211.2,211.2Zm63.43-89.6-18.63,24-18.63-24Zm-18.63,40,18.63,24H237.37Z"/></svg>