<svg id="Layer_1" data-name="Layer 1" xmlns="http://www.w3.org/2000/svg" viewBox="0 0 512 512"><defs><style>.cls-1{fill:#757889;}.cls-2{opacity:0.2;}.cls-3{fill:#fff;}.cls-4{opacity:0.12;}.cls-5{fill:#2b374f;}</style></defs><title>bomb-filled</title><path class="cls-1" d="M396.8,291.2c0,106-86,192-192,192a192,192,0,0,1-192-192c0-106,86-192,192-192a192,192,0,0,1,192,192Z"/><g class="cls-2"><path class="cls-3" d="M204.8,99.2c-106,0-192,86-192,192A191.51,191.51,0,0,0,50.56,405.57,221.36,221.36,0,0,1,44.8,355.2c0-123.52,100.48-224,224-224A221.36,221.36,0,0,1,319.17,137,191.51,191.51,0,0,0,204.8,99.2Z"/></g><g class="cls-4"><path d="M359,176.83a221.36,221.36,0,0,1,5.76,50.37c0,123.52-100.48,224-224,224a221.36,221.36,0,0,1-50.37-5.76A191.51,191.51,0,0,0,204.8,483.2c106,0,192-86,192-192A191.51,191.51,0,0,0,359,176.83Z"/></g><path class="cls-1" d="M373.44,199.36,419.2,153.6,342.4,76.8l-45.76,45.76A192.89,192.89,0,0,1,373.44,199.36Z"/><path class="cls-5" d="M435.2,73.6a76.48,76.48,0,0,0-54.85,23l-28.9-28.9a12.8,12.8,0,0,0-18.1,0l-39.2,39.2A203.57,203.57,0,0,0,204.8,86.4C91.87,86.4,0,178.27,0,291.2S91.87,496,204.8,496s204.8-91.87,204.8-204.8a203.56,203.56,0,0,0-20.55-89.35l39.2-39.2a12.8,12.8,0,0,0,0-18.1l-29.79-29.79A51,51,0,0,1,435.2,99.2a12.8,12.8,0,1,0,0-25.6ZM204.8,470.4C106,470.4,25.6,390,25.6,291.2S106,112,204.8,112,384,192.39,384,291.2,303.61,470.4,204.8,470.4ZM376,178.73a204.75,204.75,0,0,0-58.7-58.7L342.4,94.9l30,30,0,0L401.1,153.6Z"/><path class="cls-5" d="M499.2,73.6H473.6a12.8,12.8,0,1,0,0,25.6h25.6a12.8,12.8,0,1,0,0-25.6Z"/><path class="cls-5" d="M460.8,60.8a12.75,12.75,0,0,0,9-3.75L489,37.85A12.8,12.8,0,0,0,471,19.75l-19.2,19.2a12.8,12.8,0,0,0,9,21.85Z"/><path class="cls-5" d="M469.85,115.75a12.8,12.8,0,0,0-18.1,18.1l19.2,19.2a12.8,12.8,0,1,0,18.1-18.1Z"/></svg>