<svg id="Layer_1" data-name="Layer 1" xmlns="http://www.w3.org/2000/svg" viewBox="0 0 512 512"><defs><style>.cls-1{fill:#757889;}.cls-2{opacity:0.3;}.cls-3{fill:#fff;}.cls-4{opacity:0.12;}.cls-5{fill:#9acc79;}.cls-6{fill:#77a05d;}.cls-7{fill:#2b374f;}</style></defs><title>mgic-ball-filled</title><path class="cls-1" d="M460.8,499.2H51.2A83.2,83.2,0,0,1,134.4,416H377.6a83.25,83.25,0,0,1,83.2,83.2Z"/><g class="cls-2"><path class="cls-3" d="M134.4,416a83.2,83.2,0,0,0-83.2,83.2h57.6A96,96,0,0,1,157,416Z"/></g><g class="cls-4"><path d="M436.42,440.38A83,83,0,0,0,377.6,416H355a96,96,0,0,1,48.19,83.2h57.6A83,83,0,0,0,436.42,440.38Z"/></g><path class="cls-5" d="M454.4,211.2c0,109.57-88.83,198.4-198.4,198.4A198.43,198.43,0,0,1,95.87,328.32l-.06-.06A197.67,197.67,0,0,1,57.6,211.2C57.6,101.63,146.43,12.8,256,12.8A197.67,197.67,0,0,1,373.06,51l.06.06A198.43,198.43,0,0,1,454.4,211.2Z"/><g class="cls-4"><path d="M454.4,211.2c0,109.57-88.83,198.4-198.4,198.4a197.48,197.48,0,0,1-117.12-38.27A227.69,227.69,0,0,0,192,377.6c127,0,230.4-103.36,230.4-230.4a227.69,227.69,0,0,0-6.27-53.12A197.48,197.48,0,0,1,454.4,211.2Z"/></g><g class="cls-2"><path class="cls-3" d="M373.06,51A230.17,230.17,0,0,0,320,44.8C193,44.8,89.6,148.16,89.6,275.2a230.17,230.17,0,0,0,6.21,53.06A197.67,197.67,0,0,1,57.6,211.2C57.6,101.63,146.43,12.8,256,12.8A197.67,197.67,0,0,1,373.06,51Z"/></g><rect class="cls-1" x="128" y="364.8" width="256" height="51.2"/><g class="cls-2"><rect class="cls-3" x="128" y="364.8" width="38.4" height="51.2"/></g><g class="cls-4"><rect x="345.6" y="364.8" width="38.4" height="51.2"/></g><path class="cls-6" d="M236.8,185.6A12.8,12.8,0,0,1,224,172.8v-6.4h-6.4a12.8,12.8,0,1,1,0-25.6H224v-6.4a12.8,12.8,0,1,1,25.6,0v6.4H256a12.8,12.8,0,1,1,0,25.6h-6.4v6.4A12.8,12.8,0,0,1,236.8,185.6Z"/><path class="cls-6" d="M288,256a12.8,12.8,0,0,1-12.8-12.8v-6.4h-6.4a12.8,12.8,0,1,1,0-25.6h6.4v-6.4a12.8,12.8,0,1,1,25.6,0v6.4h6.4a12.8,12.8,0,1,1,0,25.6h-6.4v6.4A12.8,12.8,0,0,1,288,256Z"/><circle class="cls-6" cx="172.8" cy="217.6" r="12.8"/><circle class="cls-6" cx="217.6" cy="256" r="12.8"/><circle class="cls-6" cx="339.2" cy="140.8" r="12.8"/><path class="cls-7" d="M396.8,405.13V368.45A210.69,210.69,0,0,0,467.2,211.2C467.2,94.74,372.46,0,256,0S44.8,94.74,44.8,211.2a210.69,210.69,0,0,0,70.4,157.25v36.68A96.16,96.16,0,0,0,38.4,499.2V512H473.6V499.2A96.16,96.16,0,0,0,396.8,405.13Zm-256-27.53H371.2v25.6H140.8ZM70.4,211.2C70.4,108.86,153.66,25.6,256,25.6s185.6,83.26,185.6,185.6A185.23,185.23,0,0,1,376.77,352H135.23A185.23,185.23,0,0,1,70.4,211.2ZM65.17,486.4a70.51,70.51,0,0,1,69.23-57.6H377.6a70.51,70.51,0,0,1,69.23,57.6Z"/></svg>