<svg id="Layer_1" data-name="Layer 1" xmlns="http://www.w3.org/2000/svg" viewBox="0 0 512 512"><defs><style>.cls-1{fill:#e4e6ea;}.cls-2{fill:#9acc79;}.cls-3{opacity:0.15;}.cls-4{opacity:0.4;}.cls-5{fill:#fff;}.cls-6{fill:#ffb85a;}.cls-7{fill:#757889;}.cls-8{opacity:0.3;}.cls-9{opacity:0.2;}.cls-10{fill:#88b769;}.cls-11{fill:#2b374f;}</style></defs><title>jar-filled</title><path class="cls-1" d="M441.6,217.6V408.51a90.82,90.82,0,0,1-90.69,90.69H161.09A90.82,90.82,0,0,1,70.4,408.51V217.6A90.24,90.24,0,0,1,132,131.78l8.77-2.94V89.6H371.2v39.23l8.77,2.94A90.24,90.24,0,0,1,441.6,217.6Z"/><path class="cls-2" d="M441.6,313.6v94.91a90.82,90.82,0,0,1-90.69,90.69H161.09A90.82,90.82,0,0,1,70.4,408.51V313.6Z"/><g class="cls-3"><path d="M441.6,217.6V408.51a90.82,90.82,0,0,1-90.69,90.69H328.83A143.09,143.09,0,0,0,390.4,381.57V234.82c0-32.77-25.41-59.52-64-61.82V89.6h44.8v39.23l8.77,2.94A90.24,90.24,0,0,1,441.6,217.6Z"/></g><g class="cls-4"><path class="cls-5" d="M121.6,234.82V381.57A143.09,143.09,0,0,0,183.17,499.2H161.09A90.82,90.82,0,0,1,70.4,408.51V217.6A90.24,90.24,0,0,1,132,131.78l8.77-2.94V89.6h44.8V173C147,175.3,121.6,202,121.6,234.82Z"/></g><circle class="cls-5" cx="249.6" cy="307.2" r="76.8"/><circle class="cls-6" cx="224" cy="281.6" r="38.4"/><rect class="cls-7" x="115.2" y="12.8" width="281.6" height="76.8" rx="19.2" ry="19.2"/><g class="cls-8"><path class="cls-5" d="M166.4,12.8V89.6h-32a19.17,19.17,0,0,1-19.2-19.2V32a19.17,19.17,0,0,1,19.2-19.2Z"/></g><g class="cls-9"><path d="M396.8,32V70.4a19.17,19.17,0,0,1-19.2,19.2h-32V12.8h32A19.17,19.17,0,0,1,396.8,32Z"/></g><circle class="cls-10" cx="307.2" cy="441.6" r="12.8"/><circle class="cls-10" cx="160" cy="403.2" r="12.8"/><circle class="cls-10" cx="345.6" cy="396.8" r="19.2"/><path class="cls-11" d="M384,119.6V101.76A32.06,32.06,0,0,0,409.6,70.4V32a32,32,0,0,0-32-32H134.4a32,32,0,0,0-32,32V70.4A32.06,32.06,0,0,0,128,101.76V119.6a102.82,102.82,0,0,0-70.4,98V408.53A103.58,103.58,0,0,0,161.07,512H350.93A103.58,103.58,0,0,0,454.4,408.53V217.6A102.82,102.82,0,0,0,384,119.6ZM128,32a6.41,6.41,0,0,1,6.4-6.4H377.6A6.41,6.41,0,0,1,384,32V70.4a6.41,6.41,0,0,1-6.4,6.4H134.4a6.41,6.41,0,0,1-6.4-6.4Zm15.65,109.77,9.95-2.28V102.4H358.4v37.09l9.95,2.28A77.41,77.41,0,0,1,428.8,217.6v83.2H339a89.6,89.6,0,0,0-178.74,0h-77V217.6A77.41,77.41,0,0,1,143.65,141.77ZM249.6,371.2a64.09,64.09,0,0,1-63.36-55.07,51.17,51.17,0,1,0,72.3-72.3A64,64,0,0,1,249.6,371.2Zm0-89.6A25.6,25.6,0,1,1,224,256,25.63,25.63,0,0,1,249.6,281.6ZM350.93,486.4H161.07A78,78,0,0,1,83.2,408.53V326.4h78.88a89.83,89.83,0,0,0,74.59,69.46A33.58,33.58,0,0,0,230.4,416c0,12.49,5.54,19.42,9.21,24,2.69,3.36,3.59,4.49,3.59,8a12.8,12.8,0,1,0,25.6,0c0-12.49-5.54-19.42-9.21-24-2.69-3.36-3.59-4.49-3.59-8s.91-4.64,3.59-8a39.64,39.64,0,0,0,7.52-12.92,89.87,89.87,0,0,0,70-68.68H428.8v82.13A78,78,0,0,1,350.93,486.4Z"/><circle class="cls-11" cx="217.6" cy="275.2" r="12.8"/></svg>