<svg id="Layer_1" data-name="Layer 1" xmlns="http://www.w3.org/2000/svg" viewBox="0 0 512 512"><defs><style>.cls-1{fill:#757889;}.cls-2{fill:#e4e6ea;}.cls-3{opacity:0.12;}.cls-4{opacity:0.74;}.cls-5{fill:#fff;}.cls-6{fill:#2b374f;}</style></defs><title>moon-filled</title><path class="cls-1" d="M172.8,243.2a38.4,38.4,0,1,0-13-74.49,57.57,57.57,0,0,0-114.7-1.78,38.38,38.38,0,0,0,6.1,76.27Z"/><path class="cls-2" d="M448,262.4c0,81.28-54.21,150-128.38,171.84a179.11,179.11,0,0,1-101.63,0C143.81,412.35,89.6,343.68,89.6,262.4S143.81,112.45,218,90.56a179.11,179.11,0,0,1,101.63,0C393.79,112.45,448,181.12,448,262.4Z"/><g class="cls-3"><path d="M319.62,90.56a229.88,229.88,0,0,1,0,343.68C393.79,412.35,448,343.68,448,262.4S393.79,112.45,319.62,90.56Z"/></g><g class="cls-4"><path class="cls-5" d="M140.8,262.4A229.5,229.5,0,0,1,218,90.56C143.81,112.45,89.6,181.12,89.6,262.4s54.21,150,128.38,171.84A229.5,229.5,0,0,1,140.8,262.4Z"/></g><path class="cls-1" d="M460.8,371.2a38.4,38.4,0,1,0-13-74.49,57.57,57.57,0,0,0-114.7-1.78,38.38,38.38,0,0,0,6.1,76.27Z"/><circle class="cls-1" cx="198.4" cy="230.4" r="25.6"/><circle class="cls-1" cx="217.6" cy="339.2" r="19.2"/><circle class="cls-1" cx="300.8" cy="185.6" r="19.2"/><path class="cls-6" d="M460.8,281.6l-1,0a192.08,192.08,0,0,0,1-19.23c0-105.87-86.13-192-192-192a191.15,191.15,0,0,0-124.51,46A70.24,70.24,0,0,0,33.85,156.64,51.19,51.19,0,0,0,51.2,256H76.92c-.07,2.13-.12,4.26-.12,6.4,0,105.87,86.13,192,192,192A191.67,191.67,0,0,0,417.25,384H460.8a51.2,51.2,0,1,0,0-102.4ZM51.2,230.4a25.58,25.58,0,0,1-4.08-50.83L56.84,178l1-9.79a44.69,44.69,0,0,1,67.82-33.63A191.46,191.46,0,0,0,79.48,230.4ZM268.8,428.8c-91.76,0-166.4-74.65-166.4-166.4S177,96,268.8,96C355,96,426.12,161.91,434.39,246a70.27,70.27,0,0,0-112.54,38.66A51.19,51.19,0,0,0,339.2,384h43.07A165.79,165.79,0,0,1,268.8,428.8Zm192-70.4H339.2a25.58,25.58,0,0,1-4.08-50.83l9.72-1.56,1-9.79A44.77,44.77,0,0,1,435,297.61l1.19,16.88,15.92-5.73a25.58,25.58,0,1,1,8.67,49.65Z"/><path class="cls-6" d="M236.8,230.4a38.4,38.4,0,1,0-38.4,38.4A38.44,38.44,0,0,0,236.8,230.4Zm-51.2,0a12.8,12.8,0,1,1,12.8,12.8A12.81,12.81,0,0,1,185.6,230.4Z"/><path class="cls-6" d="M217.6,307.2a32,32,0,1,0,32,32A32,32,0,0,0,217.6,307.2Zm0,38.4a6.4,6.4,0,1,1,6.4-6.4A6.41,6.41,0,0,1,217.6,345.6Z"/><path class="cls-6" d="M332.8,185.6a32,32,0,1,0-32,32A32,32,0,0,0,332.8,185.6Zm-38.4,0a6.4,6.4,0,1,1,6.4,6.4A6.41,6.41,0,0,1,294.4,185.6Z"/><circle class="cls-6" cx="499.2" cy="102.4" r="12.8"/><circle class="cls-6" cx="460.8" cy="25.6" r="19.2"/><circle class="cls-6" cx="422.4" cy="89.6" r="12.8"/><circle class="cls-6" cx="108.8" cy="467.2" r="12.8"/><circle class="cls-6" cx="51.2" cy="428.8" r="19.2"/><circle class="cls-6" cx="12.8" cy="492.8" r="12.8"/></svg>