<svg id="Layer_1" data-name="Layer 1" xmlns="http://www.w3.org/2000/svg" viewBox="0 0 512 512"><defs><style>.cls-1{fill:#757889;}.cls-2{opacity:0.12;}.cls-3{opacity:0.3;}.cls-4{fill:#fff;}.cls-5{fill:#ffb85a;}.cls-6{fill:#2b374f;}</style></defs><title>gallows-filled</title><polygon class="cls-1" points="192 454.4 192 499.2 38.4 499.2 38.4 454.4 89.6 416 140.8 416 192 454.4"/><g class="cls-2"><polygon points="192 454.4 192 499.2 153.6 499.2 153.6 425.6 192 454.4"/></g><g class="cls-3"><polygon class="cls-4" points="76.8 425.6 76.8 499.2 38.4 499.2 38.4 454.4 76.8 425.6"/></g><path class="cls-5" d="M44.8,12.8V64H89.6V416h51.2V221.8L298.6,64h175V12.8Zm96,136.6V64h85.4Z"/><path class="cls-6" d="M486.4,76.8V0H32V76.8H76.8V409.6L30.72,444.16A12.82,12.82,0,0,0,25.6,454.4v44.8A12.8,12.8,0,0,0,38.4,512H192a12.8,12.8,0,0,0,12.8-12.8V454.4a12.82,12.82,0,0,0-5.12-10.24L153.6,409.6V227.1L303.91,76.8H409.6V179.2h-6.4a12.8,12.8,0,0,0,0,25.6A12.79,12.79,0,0,0,401,230.19C385.84,243.06,364.8,267,364.8,300.8a57.6,57.6,0,0,0,115.2,0c0-33.79-21-57.74-36.18-70.61a12.79,12.79,0,0,0-2.22-25.39,12.8,12.8,0,0,0,0-25.6h-6.4V76.8Zm-32,224a32,32,0,1,1-64,0c0-27.32,21.14-46.76,32-55C433.34,254,454.4,273.28,454.4,300.8ZM179.2,486.4H51.2V460.8l42.67-32h42.66l42.67,32ZM128,403.2H102.4V76.8H128V403.2ZM195.29,76.8,153.6,118.49V76.8ZM153.6,190.9V154.7l77.89-77.9h36.21ZM220.89,51.2H57.6V25.6H460.8V51.2H220.89Z"/></svg>