<svg id="Layer_1" data-name="Layer 1" xmlns="http://www.w3.org/2000/svg" viewBox="0 0 512 512"><defs><style>.cls-1{fill:#757889;}.cls-2{opacity:0.2;}.cls-3{fill:#fff;}.cls-4{fill:#e4e6ea;}.cls-5{opacity:0.7;}.cls-6{fill:#2b374f;}</style></defs><title>graveyard-filled</title><path class="cls-1" d="M12.8,403.2h192a0,0,0,0,1,0,0v38.4A12.8,12.8,0,0,1,192,454.4H25.6a12.8,12.8,0,0,1-12.8-12.8V403.2A0,0,0,0,1,12.8,403.2Z"/><g class="cls-2"><path d="M204.8,403.2v38.4A12.8,12.8,0,0,1,192,454.4H166.4V403.2Z"/></g><g class="cls-2"><path class="cls-3" d="M51.2,454.4H25.6a12.8,12.8,0,0,1-12.8-12.8V403.2H51.2Z"/></g><path class="cls-1" d="M307.2,403.2h192a0,0,0,0,1,0,0v38.4a12.8,12.8,0,0,1-12.8,12.8H320a12.8,12.8,0,0,1-12.8-12.8V403.2A0,0,0,0,1,307.2,403.2Z"/><path class="cls-4" d="M256,57.6h0a96,96,0,0,0-96,96V294.4H352V153.6A96,96,0,0,0,256,57.6Z"/><g class="cls-2"><path d="M499.2,403.2v38.4a12.8,12.8,0,0,1-12.8,12.8H460.8V403.2Z"/></g><g class="cls-2"><path class="cls-3" d="M345.6,454.4H320a12.8,12.8,0,0,1-12.8-12.8V403.2h38.4Z"/></g><g class="cls-5"><path class="cls-3" d="M275.2,59.53A96.05,96.05,0,0,0,160,153.6V294.4h38.4V153.6A96,96,0,0,1,275.2,59.53Z"/></g><g class="cls-2"><path d="M236.8,59.53A96.05,96.05,0,0,1,352,153.6V294.4H313.6V153.6A96,96,0,0,0,236.8,59.53Z"/></g><rect class="cls-1" x="160" y="294.4" width="192" height="51.2"/><path class="cls-4" d="M108.8,166.4h0a96,96,0,0,0-96,96V403.2h192V262.4A96,96,0,0,0,108.8,166.4Z"/><g class="cls-5"><path class="cls-3" d="M128,168.33A96.05,96.05,0,0,0,12.8,262.4V403.2H51.2V262.4A96,96,0,0,1,128,168.33Z"/></g><g class="cls-2"><path d="M89.6,168.33A96.05,96.05,0,0,1,204.8,262.4V403.2H166.4V262.4A96,96,0,0,0,89.6,168.33Z"/></g><path class="cls-4" d="M403.2,166.4h0a96,96,0,0,0-96,96V403.2h192V262.4A96,96,0,0,0,403.2,166.4Z"/><g class="cls-5"><path class="cls-3" d="M422.4,168.33A96.05,96.05,0,0,0,307.2,262.4V403.2h38.4V262.4A96,96,0,0,1,422.4,168.33Z"/></g><g class="cls-2"><path d="M384,168.33A96.05,96.05,0,0,1,499.2,262.4V403.2H460.8V262.4A96,96,0,0,0,384,168.33Z"/></g><path class="cls-6" d="M230.4,172.8h12.8V224a12.8,12.8,0,0,0,25.6,0V172.8h12.8a12.8,12.8,0,1,0,0-25.6H268.8V134.4a12.8,12.8,0,0,0-25.6,0v12.8H230.4a12.8,12.8,0,1,0,0,25.6Z"/><path class="cls-6" d="M403.2,153.6a108.26,108.26,0,0,0-38.4,7v-7a108.8,108.8,0,1,0-217.6,0v7A108.79,108.79,0,0,0,0,262.4V441.6a25.63,25.63,0,0,0,25.6,25.6H192a25.63,25.63,0,0,0,25.6-25.6V358.4h76.8v83.2A25.63,25.63,0,0,0,320,467.2H486.4A25.63,25.63,0,0,0,512,441.6V262.4A108.92,108.92,0,0,0,403.2,153.6Zm-230.4,0a83.2,83.2,0,1,1,166.4,0v20.87a108.72,108.72,0,0,0-44.8,87.93v19.2H217.6V262.4a108.72,108.72,0,0,0-44.8-87.93Zm19.2,288H25.6V416H192ZM25.6,390.4v-128a83.2,83.2,0,0,1,166.4,0v128Zm192-57.6V307.2h76.8v25.6ZM486.4,441.6H320V416H486.4ZM320,390.4v-128a83.2,83.2,0,0,1,166.4,0v128Z"/><path class="cls-6" d="M134.4,256H121.6V243.2a12.8,12.8,0,1,0-25.6,0V256H83.2a12.8,12.8,0,0,0,0,25.6H96v51.2a12.8,12.8,0,1,0,25.6,0V281.6h12.8a12.8,12.8,0,0,0,0-25.6Z"/><path class="cls-6" d="M428.8,256H416V243.2a12.8,12.8,0,1,0-25.6,0V256H377.6a12.8,12.8,0,0,0,0,25.6h12.8v51.2a12.8,12.8,0,1,0,25.6,0V281.6h12.8a12.8,12.8,0,1,0,0-25.6Z"/></svg>