<svg id="Layer_1" data-name="Layer 1" xmlns="http://www.w3.org/2000/svg" viewBox="0 0 512 512"><defs><style>.cls-1{fill:#ffb85a;}.cls-2{opacity:0.3;}.cls-3{fill:#fff;}.cls-4{opacity:0.12;}.cls-5{fill:#757889;}.cls-6{fill:#2b374f;}</style></defs><title>guillotine-filled</title><path class="cls-1" d="M473.6,12.8H38.4V64H76.8V499.2H435.2V64h38.4ZM384,396.8H307.2a51.2,51.2,0,0,1-102.4,0H128V64H384Z"/><g class="cls-2"><path class="cls-3" d="M128,396.8V499.2h38.4V396.8Z"/></g><g class="cls-4"><path d="M345.6,396.8V499.2H384V396.8Z"/></g><polygon class="cls-5" points="332.8 134.4 332.8 236.8 179.2 185.6 179.2 134.4 332.8 134.4"/><g class="cls-2"><path class="cls-3" d="M179.2,153.6v32l153.6,51.2V204.74Z"/></g><path class="cls-6" d="M486.4,0H25.6V76.8H64V512H448V76.8h38.4ZM89.6,486.4V76.8h25.6V486.4ZM320,147.2V219L192,176.38V147.2ZM179.2,121.6a12.8,12.8,0,0,0-12.8,12.8v51.2a12.8,12.8,0,0,0,8.75,12.14l153.6,51.2A12.8,12.8,0,0,0,345.6,236.8V134.4a12.8,12.8,0,0,0-12.8-12.8h-64V76.8H371.2V384h-64a12.8,12.8,0,0,0-12.8,12.8,38.4,38.4,0,1,1-76.8,0A12.8,12.8,0,0,0,204.8,384h-64V76.8H243.2v44.8ZM140.8,486.4V409.6h52.49a64,64,0,0,0,125.42,0H371.2v76.8Zm281.6,0H396.8V76.8h25.6ZM460.8,51.2H51.2V25.6H460.8Z"/></svg>