<svg id="Layer_1" data-name="Layer 1" xmlns="http://www.w3.org/2000/svg" viewBox="0 0 512 512"><defs><style>.cls-1{fill:#e4e6ea;}.cls-2{opacity:0.12;}.cls-3{opacity:0.6;}.cls-4{fill:#fff;}.cls-5{fill:#757889;}.cls-6{opacity:0.2;}.cls-7{fill:#ffb85a;}.cls-8{fill:#2b374f;}</style></defs><title>lantern-filled</title><path class="cls-1" d="M374.46,461.57a69.53,69.53,0,0,1-27.65,5.63H165.18a69.53,69.53,0,0,1-27.65-5.63,70.47,70.47,0,0,1-42-75.39L135,127.62a44.81,44.81,0,0,1,44.29-38H332.74a44.81,44.81,0,0,1,44.29,38l39.42,258.56A70.47,70.47,0,0,1,374.46,461.57Z"/><g class="cls-2"><path d="M416.45,386.18,377,127.62a44.81,44.81,0,0,0-44.29-38h-15l56.7,372A70.47,70.47,0,0,0,416.45,386.18Z"/></g><g class="cls-3"><path class="cls-4" d="M179.26,89.6a44.81,44.81,0,0,0-44.29,38L95.55,386.18a70.47,70.47,0,0,0,42,75.39l56.7-372Z"/></g><rect class="cls-5" x="198.4" y="64" width="115.2" height="51.2" rx="2" ry="2"/><path class="cls-5" d="M345.6,499.2H166.4a64,64,0,0,1,64-64h51.2a64,64,0,0,1,64,64Z"/><g class="cls-6"><path class="cls-4" d="M230.4,435.2a64,64,0,0,0-64,64h51.2V480a75.87,75.87,0,0,1,14.53-44.8Z"/></g><g class="cls-2"><path d="M345.6,499.2a64,64,0,0,0-64-64h-1.22A75.87,75.87,0,0,1,294.91,480v19.2Z"/></g><path class="cls-7" d="M300.8,345.6a44.8,44.8,0,0,1-89.6,0c0-44.8,44.8-83.2,44.8-83.2S300.8,300.8,300.8,345.6Z"/><path class="cls-4" d="M273.92,359.68a17.92,17.92,0,0,1-35.84,0c0-17.92,17.92-33.28,17.92-33.28S273.92,341.76,273.92,359.68Z"/><path class="cls-8" d="M429.1,384.25,389.66,125.71A57.28,57.28,0,0,0,332.71,76.8H326.4a25.63,25.63,0,0,0-25.6-25.6V44.8a44.8,44.8,0,1,0-89.6,0v6.4a25.63,25.63,0,0,0-25.6,25.6h-6.31a57.28,57.28,0,0,0-56.95,48.91L82.9,384.25a83.22,83.22,0,0,0,73.27,95.26,76.63,76.63,0,0,0-2.57,19.69V512H358.4V499.2a76.63,76.63,0,0,0-2.57-19.69,83.22,83.22,0,0,0,73.27-95.26ZM236.8,44.8a19.2,19.2,0,0,1,38.4,0v6.4H236.8Zm-25.6,32h89.6v25.6H211.2ZM180.82,486.4A51.29,51.29,0,0,1,230.4,448h51.2a51.29,51.29,0,0,1,49.58,38.4ZM256,377.6a32,32,0,0,1-32-32c0-27.19,20.19-52.69,32-65.28,11.82,12.59,32,38.09,32,65.28A32,32,0,0,1,256,377.6Zm134.54,56.73a57.54,57.54,0,0,1-43.69,20.07h-2.92a76.73,76.73,0,0,0-62.32-32H268.8V401.75a57.69,57.69,0,0,0,44.8-56.15c0-50.11-47.26-91.19-49.27-92.92a12.81,12.81,0,0,0-16.66,0c-2,1.73-49.27,42.81-49.27,92.92a57.69,57.69,0,0,0,44.8,56.15V422.4H230.4a76.73,76.73,0,0,0-62.32,32h-2.92a57.6,57.6,0,0,1-56.94-66.28l39.44-258.54a31.82,31.82,0,0,1,31.64-27.18h6.31A25.63,25.63,0,0,0,211.2,128h89.6a25.63,25.63,0,0,0,25.6-25.6h6.31a31.82,31.82,0,0,1,31.64,27.18l39.44,258.54A57.52,57.52,0,0,1,390.54,434.33Z"/></svg>