<svg id="Layer_1" data-name="Layer 1" xmlns="http://www.w3.org/2000/svg" viewBox="0 0 512 512"><defs><style>.cls-1{fill:#e4e6ea;}.cls-2{opacity:0.6;}.cls-3{fill:#fff;}.cls-4{opacity:0.15;}.cls-5{fill:#f2496d;}.cls-6{fill:#2b374f;}</style></defs><title>mummy-filled</title><path class="cls-1" d="M441.6,198.4V313.6a185.6,185.6,0,1,1-371.2,0V198.4a185.6,185.6,0,1,1,371.2,0Z"/><g class="cls-2"><path class="cls-3" d="M206,492.35A185.53,185.53,0,0,1,70.4,313.6V198.4A185.52,185.52,0,0,1,206,19.65C155,58.3,121.6,122,121.6,194V318C121.6,390,155,453.7,206,492.35Z"/></g><g class="cls-4"><path d="M441.6,198.4V313.6A185.53,185.53,0,0,1,306,492.35C357,453.7,390.4,390,390.4,318V194C390.4,122,357,58.3,306,19.65A185.48,185.48,0,0,1,441.6,198.4Z"/></g><path class="cls-5" d="M370.43,250.82a37,37,0,0,0,.77-7.62,38.4,38.4,0,1,0-62,30.21"/><path class="cls-5" d="M208.19,218.11a37.89,37.89,0,0,1,9.41,25.09,38.4,38.4,0,0,1-76.8,0,17.38,17.38,0,0,1,.06-1.86"/><path class="cls-6" d="M454.4,313.6V232c0-.06,0-.11,0-.17V198.4a198.33,198.33,0,0,0-291.87-175,12.85,12.85,0,0,0-2.36,1.29A199.88,199.88,0,0,0,92.33,86.4a12.68,12.68,0,0,0-1.25,1.84,197.16,197.16,0,0,0-33.18,99.4c0,.11,0,.22,0,.33q-.27,5.18-.27,10.43V313.6A197.31,197.31,0,0,0,73,390.15c0,.13.07.27.12.4a12.85,12.85,0,0,0,.85,1.87,199.29,199.29,0,0,0,47.59,66.92,12.79,12.79,0,0,0,2.09,1.9A198.17,198.17,0,0,0,426.48,415a12.79,12.79,0,0,0,1.44-2.43A197.19,197.19,0,0,0,454.4,313.6ZM107.48,110.18q34.2,12.62,69.61,22.73A941,941,0,0,0,86,167.5,171.63,171.63,0,0,1,107.48,110.18Zm270.34,58.9A1003.8,1003.8,0,0,0,83.2,251.62V198.4c0-.53,0-1.05,0-1.58a920.15,920.15,0,0,1,141.88-51.5A1058,1058,0,0,0,377.82,169.08ZM312.16,258.3a25.29,25.29,0,0,1-5-15.1,25.6,25.6,0,0,1,51.12-2Q334.83,249,312.16,258.3Zm-73.5,35.28a248.21,248.21,0,0,0-27.84-10.16,51.07,51.07,0,0,0,16.47-57.73q33.47-9.64,67.6-16.88a51.14,51.14,0,0,0-6.57,59.77Q262.9,280.12,238.66,293.58Zm-36-60.44a25.53,25.53,0,0,1-23.5,35.67,25.64,25.64,0,0,1-24.73-19Q178.39,240.83,202.7,233.13Zm-72.15,26a51,51,0,0,0,5.64,11.8c-10.74-.57-21.68-.67-32.78-.3Q116.91,264.68,130.55,259.13Zm252.52-25.61a51.35,51.35,0,0,0-26.68-35.74q35.81-5.25,72.2-7.92.21,4.25.21,8.54v23.3Q405.62,226.93,383.07,233.52ZM83.2,313.6V297.5c56.6-5,109.7,2.67,150.65,22a181,181,0,0,1,18.6,10.09A971.68,971.68,0,0,0,153.71,351c-20.44,5.53-40.93,11.87-61.08,18.89A172.05,172.05,0,0,1,83.2,313.6Zm205.29,10.73a179.93,179.93,0,0,0-22.42-16.43,678.23,678.23,0,0,1,107.34-44.65,12.82,12.82,0,0,0,1.86-.59q26.27-8.32,53.52-14.69V313.6c0,.77,0,1.54,0,2.31A1068,1068,0,0,0,288.49,324.33Zm75.1-261.2a985.72,985.72,0,0,1-158.11-30,173,173,0,0,1,158.11,30ZM169,49.14A1011,1011,0,0,0,391.73,91.38a171.09,171.09,0,0,1,29.07,54.79A1044.85,1044.85,0,0,1,228.39,119.8q-.6-.17-1.22-.28a957.41,957.41,0,0,1-104.41-31A174.09,174.09,0,0,1,169,49.14Zm-66.2,344.35c19-6.58,38.32-12.53,57.62-17.75,84.36-23,173.81-34.48,266.1-34.23a171.47,171.47,0,0,1-17.93,53.07,1004.9,1004.9,0,0,0-274,41.88A173.76,173.76,0,0,1,102.81,393.49ZM256,486.4a171.81,171.81,0,0,1-97.49-30.21,979.2,979.2,0,0,1,233.1-35.62A172.58,172.58,0,0,1,256,486.4Z"/></svg>