<svg id="Layer_1" data-name="Layer 1" xmlns="http://www.w3.org/2000/svg" viewBox="0 0 512 512"><defs><style>.cls-1{fill:#f2496d;}.cls-2{opacity:0.2;}.cls-3{fill:#fff;}.cls-4{fill:#e4e6ea;}.cls-5{fill:#2b374f;}</style></defs><title>lips-filled</title><path class="cls-1" d="M499.13,204.74c-.83-1.09-10.3-12.42-25.47-27.39C441.09,145.09,382.33,96,326.4,96c0,0-19.2,0-44.8,19.2-7.42,5.57-13.25,5.89-19.2,6.4H249.6c-6-.51-11.78-.83-19.2-6.4C204.8,96,185.6,96,185.6,96,129.73,96,71,145,38.4,177.28c-15.17,15-24.7,26.37-25.54,27.46l-.06.06a214.9,214.9,0,0,0,25.54,57.28C82.12,330.81,162.24,364.8,256,364.8s173.89-34,217.66-102.72A214.9,214.9,0,0,0,499.2,204.8Z"/><g class="cls-2"><path d="M256,326.4c-89.34,0-164.41-23-217.66-64.32C82.12,330.81,162.24,364.8,256,364.8s173.89-34,217.66-102.72C420.41,303.42,345.34,326.4,256,326.4Z"/></g><g class="cls-2"><path class="cls-3" d="M326.4,96s-19.2,0-44.8,19.2c-7.42,5.57-13.25,5.89-19.2,6.4H249.6c-6-.51-11.78-.83-19.2-6.4C204.8,96,185.6,96,185.6,96,129.73,96,71,145,38.4,177.28c38.34-20.22,82.75-36.48,126.65-36.48,3.07,0,31.36.64,67.77,21.76,5.5,3.2,9,3.39,15.49,3.84h15.23c6.85-.45,10.3-.77,15.62-3.84,36.42-21.12,64.7-21.76,67.84-21.76,43.84,0,88.32,16.26,126.65,36.54C441.09,145.09,382.33,96,326.4,96Z"/></g><path class="cls-4" d="M166.08,209.86a103.73,103.73,0,0,0-25.41,3.71l-13.44,3.65a105.85,105.85,0,0,1-40.06,3l38.08,138.94L140.8,416,196.16,213.5A104.17,104.17,0,0,0,166.08,209.86Zm229.63,6.85-1-.26-10.62-2.88A105.92,105.92,0,0,0,320.64,216l-3.84,1.34,38.85,141.95L371.2,416l53.57-195.58A106.8,106.8,0,0,1,395.71,216.7Z"/><g class="cls-2"><path d="M395.71,216.7l-1-.26-1.47,5.44L355.65,359.29,371.2,416l53.57-195.58A106.8,106.8,0,0,1,395.71,216.7Zm-229.63-6.85-18.5,67.58-22.34,81.73L140.8,416,196.16,213.5A104.17,104.17,0,0,0,166.08,209.86Z"/></g><path class="cls-5" d="M511.62,201.7A12.72,12.72,0,0,0,509,196.6l-.07-.1c-4.62-5.57-95.25-113.3-182.53-113.3-2.4,0-24.28.61-52.48,21.76-4.09,3.07-6.8,3.39-12.06,3.84H250.07c-5-.43-7.76-.66-12-3.83C209.88,83.81,188,83.2,185.6,83.2,99.33,83.2,9.79,188.45,3.26,196.27l-.06.08a12.71,12.71,0,0,0-.93,1.19l0,.05a12.66,12.66,0,0,0-.73,1.23l-.15.29q-.26.53-.48,1.09l-.13.33q-.21.59-.36,1.21c0,.08,0,.15-.06.23l0,.14A12.82,12.82,0,0,0,0,205c0,.08,0,.17,0,.25a12.67,12.67,0,0,0,.11,1.3c0,.08,0,.17,0,.25a12.76,12.76,0,0,0,.4,1.74c17,59.3,54.44,105.19,106.87,134.1l21,76.72a12.8,12.8,0,0,0,12.34,9.42h0a12.8,12.8,0,0,0,12.34-9.42l14.43-52.79c27.14,7.24,56.75,11,88.42,11s61.27-3.77,88.41-11l14.45,52.79a12.8,12.8,0,0,0,24.69,0l21-76.72c52.5-29,90-74.93,106.94-134.34l0-.09A12.73,12.73,0,0,0,511.62,201.7Zm-326.2-92.9c.16,0,16,.66,37.31,16.64,10.11,7.58,18.82,8.32,25.78,8.91.37,0,.73,0,1.1,0h12.8c.36,0,1.34-.07,1.7-.1,6.36-.54,15.07-1.28,25.18-8.86,21.31-16,37.15-16.64,37.12-16.64,57.73,0,121.51,59.79,149,88.75l-29.28,7.32a92.82,92.82,0,0,1-20.77,2.75c-.24,0-.48,0-.73,0a91.47,91.47,0,0,1-16.13-1.18h0q-1.56-.25-3.11-.56h-.08q-3.15-.63-6.23-1.47l-11.6-3.17a118,118,0,0,0-61-.38c-3.41.89-6.8,1.91-10.15,3.11l-3.82,1.37-.06,0L293.69,212a93.3,93.3,0,0,1-62.59,0l-22.66-8.09a118,118,0,0,0-51.62-6.33l-.29,0q-1.59.16-3.18.37l-1.23.17c-.86.12-1.72.25-2.58.39l-1.95.34-2,.38c-.91.18-1.81.38-2.71.58l-1.37.3c-1.39.33-2.78.67-4.17,1.05l-13.44,3.67c-1.23.33-2.46.63-3.7.91L119,206q-1.7.37-3.4.67l-1.35.22q-1.26.2-2.52.37l-1.33.18q-1.78.21-3.56.35l-.92.07a94.27,94.27,0,0,1-17.31-.41c-.2,0-.4,0-.59,0q-4.1-.5-8.15-1.36l-42.73-9.16C65,167.75,128.24,108.8,185.41,108.8ZM32.19,222l42.36,9.08c.82.18,1.65.33,2.48.49L97.59,306.7C68.3,285.37,46.07,256.87,32.19,222Zm108.6,145.46L104.12,233.64l.87,0,1.83-.1,2.07-.15,1.2-.1c.86-.08,1.73-.17,2.59-.26l.77-.08c1-.11,1.92-.24,2.88-.38l.55-.08c1-.15,2-.31,3-.48l.5-.08c1-.17,1.91-.36,2.86-.55l.61-.12c.91-.19,1.82-.4,2.73-.61l.71-.16q1.69-.41,3.37-.86l13.44-3.67c1.38-.37,2.76-.71,4.15-1l.83-.18c1.22-.26,2.45-.5,3.68-.72l.46-.08a93.23,93.23,0,0,1,27-.55ZM256,352c-29.51,0-56.85-3.37-81.73-9.87L205,229.87l17.54,6.26a118.95,118.95,0,0,0,79.81,0l5.83-2.08,29.58,108.08C312.84,348.63,285.5,352,256,352Zm115.2,15.53L332.4,225.74l2.17-.55.74-.18q1.62-.38,3.25-.69l.86-.15c.81-.15,1.62-.29,2.43-.42l1.13-.17,2.17-.29,1.22-.14,2.13-.2,1.22-.1,2.19-.13,1.13-.05c.83,0,1.67,0,2.5,0h.81q1.66,0,3.33.06l.59,0c.9,0,1.81.09,2.71.16l1.13.1c.73.06,1.46.13,2.19.21l1.25.15,2.09.28,1.25.19,2.15.37,1.14.21c.83.16,1.65.34,2.48.53l.78.17q1.66.39,3.32.84l11.6,3.17q1.93.53,3.88,1l.45.1q1.75.41,3.52.76l.27.05q3.89.77,7.81,1.27Zm43.21-60.83,20.27-74a118.49,118.49,0,0,0,17.66-3l27.11-6.78A190.36,190.36,0,0,1,414.41,306.7Z"/></svg>