<svg id="Layer_1" data-name="Layer 1" xmlns="http://www.w3.org/2000/svg" viewBox="0 0 512 512"><defs><style>.cls-1{fill:#ffb85a;}.cls-2{fill:#757889;}.cls-3{opacity:0.3;}.cls-4{fill:#fff;}.cls-5{opacity:0.2;}.cls-6{fill:#9acc79;}.cls-7{fill:#2b374f;}</style></defs><title>cauldron-filled</title><path class="cls-1" d="M203.34,190.55h0a22.4,22.4,0,0,1-31.68,0L45,63.84a22.4,22.4,0,0,1,0-31.68h0a22.4,22.4,0,0,1,31.68,0L203.34,158.87A22.4,22.4,0,0,1,203.34,190.55Z"/><path class="cls-2" d="M473.59,163.2A28.92,28.92,0,0,1,453,190.78a29.27,29.27,0,0,1-8.26,1.22H80a29.27,29.27,0,0,1-8.26-1.22A28.8,28.8,0,0,1,80,134.4h364.8A28.84,28.84,0,0,1,473.59,163.2Z"/><path class="cls-2" d="M473.59,313.6a230,230,0,0,1-81.54,175.81,41.82,41.82,0,0,1-27.2,9.79H159.93a41.82,41.82,0,0,1-27.2-9.79A230,230,0,0,1,78.65,204.74c2.24-4.35,4.74-8.58,7.3-12.74h352.9c2.56,4.16,5.06,8.38,7.3,12.74A229.25,229.25,0,0,1,473.59,313.6Z"/><g class="cls-3"><path class="cls-4" d="M188.47,499.2H159.93a41.82,41.82,0,0,1-27.2-9.79A230,230,0,0,1,78.65,204.74c2.24-4.35,4.74-8.58,7.3-12.74H135a243,243,0,0,0,53.44,307.2Z"/></g><g class="cls-5"><path d="M473.59,313.6a230,230,0,0,1-81.54,175.81,41.82,41.82,0,0,1-27.2,9.79H336.31A243,243,0,0,0,389.75,192h49.09c2.56,4.16,5.06,8.38,7.3,12.74A229.25,229.25,0,0,1,473.59,313.6Z"/></g><g class="cls-3"><path class="cls-4" d="M108.79,134.4V192H80a29.27,29.27,0,0,1-8.26-1.22A28.8,28.8,0,0,1,80,134.4Z"/></g><g class="cls-5"><path d="M473.59,163.2A28.92,28.92,0,0,1,453,190.78a29.27,29.27,0,0,1-8.26,1.22H416V134.4h28.8A28.84,28.84,0,0,1,473.59,163.2Z"/></g><path class="cls-6" d="M346.87,102.94a42.76,42.76,0,0,0-10.53,1.36,57.09,57.09,0,0,0-100.1-7.83,46.48,46.48,0,0,0-23.77-6.55c-24.93,0-45.32,19.61-47.18,44.47h0a39.5,39.5,0,0,1,39.5,39.5V325.3c0,13.37,9.77,25.31,23.08,26.58A25.61,25.61,0,0,0,256,326.4V218.7c0-13.37,9.78-25.31,23.09-26.58a25.6,25.6,0,0,1,28.11,25.48v30.9c0,13.37,9.77,25.31,23.08,26.58a25.61,25.61,0,0,0,28.12-25.48V164.53a30.13,30.13,0,0,1,30.13-30.13h0A43.63,43.63,0,0,0,346.87,102.94Z"/><circle class="cls-6" cx="422.39" cy="70.4" r="25.6"/><circle class="cls-6" cx="345.59" cy="32" r="19.2"/><path class="cls-7" d="M422.39,108.8A38.4,38.4,0,1,0,384,70.4,38.44,38.44,0,0,0,422.39,108.8Zm0-51.2a12.8,12.8,0,1,1-12.8,12.8A12.81,12.81,0,0,1,422.39,57.6Z"/><path class="cls-7" d="M345.59,64a32,32,0,1,0-32-32A32,32,0,0,0,345.59,64Zm0-38.4a6.4,6.4,0,1,1-6.4,6.4A6.41,6.41,0,0,1,345.59,25.6Z"/><path class="cls-7" d="M486.39,163.2a41.65,41.65,0,0,0-41.6-41.6H397.23a55.54,55.54,0,0,0-54-31.33A69.74,69.74,0,0,0,232.4,80.59a59.23,59.23,0,0,0-19.93-3.47,60,60,0,0,0-48.17,24.61L85.68,23.11A35.2,35.2,0,1,0,35.9,72.89L84.61,121.6H80a41.6,41.6,0,0,0-14.56,80.57,243.12,243.12,0,0,0,59,297A54.85,54.85,0,0,0,159.94,512h204.9a54.86,54.86,0,0,0,35.49-12.82,243.12,243.12,0,0,0,59-297A41.67,41.67,0,0,0,486.39,163.2Zm-41.6-16a16,16,0,0,1,0,32h-73.6V164.53a17.35,17.35,0,0,1,17.34-17.33h56.26ZM212.47,102.72a33.9,33.9,0,0,1,17.25,4.77l10.51,6.22,6.71-10.2a44.29,44.29,0,0,1,77.77,6.13l4.44,9.7,10.34-2.62A29.55,29.55,0,0,1,369.61,126a43,43,0,0,0-24,38.54V249.6a12.81,12.81,0,0,1-14.1,12.74c-6.45-.62-11.5-6.7-11.5-13.84V217.6a38.4,38.4,0,0,0-42.12-38.22c-19.44,1.85-34.67,19.12-34.67,39.32V326.4a12.81,12.81,0,0,1-14.1,12.74c-6.45-.62-11.5-6.7-11.5-13.84V173.9A52.39,52.39,0,0,0,180.84,124,34.69,34.69,0,0,1,212.47,102.72ZM54,54.79A9.6,9.6,0,0,1,67.58,41.21L148,121.6H120.81ZM80,147.2h85.3A26.73,26.73,0,0,1,192,173.9v5.3H80a16,16,0,0,1,0-32ZM383.78,479.65a29.25,29.25,0,0,1-18.94,6.75H159.94A29.23,29.23,0,0,1,141,479.65,217.52,217.52,0,0,1,93.15,204.8H192V325.3c0,20.19,15.23,37.47,34.67,39.33q1.83.17,3.65.17a38.4,38.4,0,0,0,38.47-38.4V218.7c0-7.14,5-13.22,11.5-13.84a12.8,12.8,0,0,1,9.9,3.26,12.66,12.66,0,0,1,4.19,9.47v30.9c0,20.19,15.23,37.47,34.67,39.33a38.41,38.41,0,0,0,42.13-38.23V204.8h60.44a217.53,217.53,0,0,1-47.85,274.85Z"/></svg>