<?xml version="1.0" encoding="utf-8"?>
<!-- Generator: Adobe Illustrator 21.0.0, SVG Export Plug-In . SVG Version: 6.00 Build 0)  -->
<svg version="1.1" id="Layer_1" xmlns="http://www.w3.org/2000/svg" xmlns:xlink="http://www.w3.org/1999/xlink" x="0px" y="0px"
	 viewBox="0 0 512 512" style="enable-background:new 0 0 512 512;" xml:space="preserve">
<style type="text/css">
	.st0{fill:#757889;}
	.st1{fill:#FFB85A;}
	.st2{opacity:0.3;}
	.st3{fill:#FFFFFF;}
	.st4{opacity:0.2;}
	.st5{fill:#2B374F;}
</style>
<g>
	<title>hat-filled</title>
	<path class="st0" d="M383.9,372.8c0,12.5-21.6,23.5-54.7,30.1c-20.7,4.2-46,6.7-73.3,6.7c-27.3,0-52.5-2.4-73.3-6.7
		c-33-6.7-54.7-17.7-54.7-30.1c0-1.2,0.2-2.4,0.6-3.6L231,31.3c2.9-10.3,12-17.6,22.7-18.4c1.6-0.1,3.2-0.1,4.7,0
		c10.7,0.8,19.7,8.2,22.7,18.4l102.3,337.9C383.7,370.4,383.9,371.6,383.9,372.8z"/>
	<ellipse class="st0" cx="256" cy="428.8" rx="243.2" ry="70.4"/>
	<path class="st1" d="M383.9,372.8c0,20.3-57.3,36.8-127.9,36.8s-127.9-16.5-127.9-36.8c0-1.2,0.2-2.4,0.6-3.6l16.6-54.8
		c22.1,10.9,63.4,18.4,110.7,18.4s88.6-7.4,110.7-18.4l16.6,54.8C383.7,370.4,383.9,371.6,383.9,372.8z"/>
	<g class="st2">
		<path class="st3" d="M253.6,12.9l-70.9,390c-33-6.7-54.7-17.7-54.7-30.1c0-1.2,0.2-2.4,0.6-3.6L231,31.4
			C233.9,21.1,243,13.7,253.6,12.9z"/>
	</g>
	<g class="st4">
		<path d="M383.9,372.8c0,12.5-21.6,23.5-54.7,30.1l-70.9-390c10.7,0.8,19.7,8.2,22.7,18.4l102.3,337.9
			C383.7,370.4,383.9,371.6,383.9,372.8z"/>
	</g>
	<circle class="st3" cx="256" cy="371.2" r="32"/>
	<circle class="st5" cx="454.4" cy="320" r="12.8"/>
	<circle class="st5" cx="416" cy="243.2" r="19.2"/>
	<circle class="st5" cx="448" cy="134.4" r="12.8"/>
	<circle class="st5" cx="32" cy="326.4" r="12.8"/>
	<circle class="st5" cx="76.8" cy="281.6" r="19.2"/>
	<circle class="st5" cx="89.6" cy="204.8" r="12.8"/>
	<path class="st5" d="M393.1,357.6L379,310.7c0-0.2-0.1-0.3-0.2-0.5L293.2,27.7c-6.2-20.6-27.9-32.2-48.5-26
		c-12.5,3.8-22.2,13.5-26,26l-85.5,282.6c-0.1,0.2-0.1,0.3-0.2,0.5l-14.2,46.8C50.2,370.8,0,394.7,0,428.8
		C0,483.4,128.8,512,256,512s256-28.6,256-83.2C512,394.7,461.8,370.8,393.1,357.6z M256,352c10.6,0,19.2,8.6,19.2,19.2
		c0,10.6-8.6,19.2-19.2,19.2c-10.6,0-19.2-8.6-19.2-19.2C236.8,360.6,245.4,352,256,352z M371,372.7c-3.3,5.9-28.9,18-77.1,22.4
		c10-15.8,9.1-36.1-2.1-50.9c25.9-2.1,49-6.4,66.8-12.6L371,372.7z M218.1,395.1c-48.2-4.4-73.8-16.5-77.1-22.4l12.5-41.1
		c17.8,6.1,40.9,10.5,66.8,12.6C209,359,208.2,379.3,218.1,395.1L218.1,395.1z M243.3,35.1c2.1-7,9.6-11,16.6-8.9
		c4.3,1.3,7.6,4.6,8.9,8.9l82.4,272c-22.6,8.1-57.6,12.9-95.1,12.9s-72.5-4.8-95.1-12.9L243.3,35.1z M256,486.4
		c-140.6,0-230.4-34.1-230.4-57.6c0-14.4,33.8-32.8,92.3-44.9C133,414,209.1,422.4,256,422.4s123-8.4,138.1-38.5
		c58.5,12.1,92.3,30.5,92.3,44.9C486.4,452.3,396.6,486.4,256,486.4z"/>
</g>
</svg>
