<svg id="Layer_1" data-name="Layer 1" xmlns="http://www.w3.org/2000/svg" viewBox="0 0 512 512"><defs><style>.cls-1{fill:#e4e6ea;}.cls-2{opacity:0.6;}.cls-3{fill:#fff;}.cls-4{opacity:0.12;}.cls-5{fill:#ffb85a;}.cls-6{opacity:0.3;}.cls-7{fill:#757889;}.cls-8{fill:#2b374f;}</style></defs><title>finger-filled</title><path class="cls-1" d="M148.43,427.22A45,45,0,0,1,80.57,486a37.24,37.24,0,0,1-5-6.11,44.89,44.89,0,0,1-6.75-36.72A44.81,44.81,0,0,1,32,436.42a44.15,44.15,0,0,1-6-5,45,45,0,0,1,58.72-67.85l82.45-82.38L190,303.94l18.2,18.2,22.7,22.7Z"/><g class="cls-2"><path class="cls-3" d="M167.21,281.18,84.75,363.56A45,45,0,0,0,26,431.4a44.15,44.15,0,0,0,6,5,57.82,57.82,0,0,1,82.58-57.17L190,303.94Z"/></g><g class="cls-4"><path d="M230.88,344.84l-22.7-22.7L132.8,397.45a58.22,58.22,0,0,1-11.26,65.79,57.49,57.49,0,0,1-46,16.66,37.24,37.24,0,0,0,5,6.11,45,45,0,0,0,67.85-58.78Z"/></g><path class="cls-5" d="M499.21,122.2a109,109,0,0,1-32,77.3l-163,162.9a64,64,0,0,1-56.28,17.88,16,16,0,0,1-13.12-13.12l-3.73-21.54A16,16,0,0,0,218,332.5l-21.55-3.73a16.06,16.06,0,0,1-13.12-13.12L179.55,294a16.14,16.14,0,0,0-13.12-13.12l-21.61-3.73a16,16,0,0,1-13.12-13.12,62,62,0,0,1-.9-10.87,64.21,64.21,0,0,1,18.78-45.4l163-162.9a109.32,109.32,0,0,1,186.26,68.36C499.08,116.22,499.21,119.25,499.21,122.2Z"/><g class="cls-6"><path class="cls-3" d="M398.75,13.26,137.81,274.17a16.25,16.25,0,0,1-6.11-10.1,62,62,0,0,1-.9-10.87,64.21,64.21,0,0,1,18.78-45.4l163-162.9A109,109,0,0,1,398.75,13.26Z"/></g><g class="cls-4"><path d="M499.21,122.2a109,109,0,0,1-32,77.3l-163,162.9a64,64,0,0,1-56.28,17.88,16.19,16.19,0,0,1-10-6l260.93-261C499.08,116.22,499.21,119.25,499.21,122.2Z"/></g><path class="cls-7" d="M371.66,194.95l-54.57-54.57a19.29,19.29,0,0,1,0-27.28l31.83-31.83a57.89,57.89,0,0,1,81.86,0h0a57.87,57.87,0,0,1,0,81.85l-31.83,31.83A19.3,19.3,0,0,1,371.66,194.95Z"/><path class="cls-1" d="M376.21,135.83c-17.87-17.86-45.11-20.27-64.57-7a19.11,19.11,0,0,0,5.45,11.57l54.57,54.57a19.12,19.12,0,0,0,11.57,5.45C396.49,180.94,394.07,153.7,376.21,135.83Z"/><path class="cls-8" d="M476.26,35.79a122.21,122.21,0,0,0-172.82,0l-163,162.93A77.14,77.14,0,0,0,119,266.29a29,29,0,0,0,21.65,23.18L82.76,347.4A57.83,57.83,0,1,0,54.7,457.31a57.83,57.83,0,1,0,109.92-28.05l57.94-57.93A29,29,0,0,0,245.75,393h0a77.08,77.08,0,0,0,67.56-21.44l163-162.93A122.31,122.31,0,0,0,476.26,35.79ZM131.48,426l6.67,8.92a32.13,32.13,0,0,1-48.46,42,31.86,31.86,0,0,1-8.4-30.56l5.25-20.86-20.86,5.24a32.12,32.12,0,0,1-30.57-53.88,32.31,32.31,0,0,1,42-3L86,380.54l81.19-81.18.27.27,3.14,18.18a29,29,0,0,0,23.61,23.61l18.2,3.14.27.27ZM458.07,190.4l-163,162.93a51.42,51.42,0,0,1-45,14.28h0a3.23,3.23,0,0,1-2.63-2.63l-3.72-21.57a29,29,0,0,0-23.61-23.62l-21.57-3.71a3.24,3.24,0,0,1-2.64-2.64l-3.72-21.57a29,29,0,0,0-23.61-23.61L147,264.54a3.24,3.24,0,0,1-2.63-2.63,51.38,51.38,0,0,1,14.28-45L321.63,54A96.47,96.47,0,1,1,458.07,190.4Z"/><path class="cls-8" d="M439.88,72.17a70.82,70.82,0,0,0-100,0L308,104a32.14,32.14,0,0,0-1.9,43.4l.14.16c.56.66,1.14,1.3,1.76,1.92L362.56,204h0c.6.6,1.22,1.16,1.85,1.7l.25.22q1,.83,2,1.57l0,0A32.16,32.16,0,0,0,408,204l31.84-31.83A70.81,70.81,0,0,0,439.88,72.17ZM377.49,182.59l-47.21-47.21-.83-.83a39.55,39.55,0,0,1,48,48ZM421.69,154,404.51,171.2a65.67,65.67,0,0,0-63.67-63.67L358,90.36A45,45,0,1,1,421.69,154Z"/><path class="cls-8" d="M298.9,167.66a12.86,12.86,0,1,0-18.19,18.19l45.47,45.48a12.86,12.86,0,1,0,18.19-18.19Z"/></svg>